<?xml version="1.0" encoding="UTF-8" standalone="no"?>
<svg
   version="1.0"
   width="1920.000000pt"
   height="1080.000000pt"
   viewBox="0 0 1920.000000 1080.000000"
   preserveAspectRatio="xMidYMid meet"
   id="svg276"
   sodipodi:docname="Magnetfield.svg"
   inkscape:version="1.4.3 (0d15f75, 2025-12-25)"
   xmlns:inkscape="http://www.inkscape.org/namespaces/inkscape"
   xmlns:sodipodi="http://sodipodi.sourceforge.net/DTD/sodipodi-0.dtd"
   xmlns="http://www.w3.org/2000/svg"
   xmlns:svg="http://www.w3.org/2000/svg">
  <defs
     id="defs276" />
  <sodipodi:namedview
     id="namedview276"
     pagecolor="#ffffff"
     bordercolor="#000000"
     borderopacity="0.25"
     inkscape:showpageshadow="2"
     inkscape:pageopacity="0.0"
     inkscape:pagecheckerboard="0"
     inkscape:deskcolor="#d1d1d1"
     inkscape:document-units="pt"
     inkscape:zoom="0.53472222"
     inkscape:cx="1280.1039"
     inkscape:cy="720"
     inkscape:window-width="1920"
     inkscape:window-height="991"
     inkscape:window-x="-9"
     inkscape:window-y="-9"
     inkscape:window-maximized="1"
     inkscape:current-layer="svg276" />
  <g
     transform="matrix(0.1,0,0,-0.1,-12.623377,1077.1948)"
     fill="#000000"
     stroke="none"
     id="g276"
     style="fill:#000000;fill-opacity:1">
    <path
       d="M 0,5400 V 0 h 9600 9600 v 5400 5400 H 9600 0 Z m 9145,3680 c -49,-11 -91,-17 -94,-15 -10,10 86,33 139,33 37,1 29,-3 -45,-18 z m 385,12 c 0,-5 -57,-12 -127,-15 -233,-11 -469,-75 -686,-184 -161,-80 -272,-156 -426,-291 -34,-30 -61,-49 -61,-44 0,6 26,34 58,62 290,259 639,420 1022,469 88,11 220,13 220,3 z m 555,-32 c 130,-42 277,-108 384,-172 134,-80 348,-247 335,-261 -4,-3 -34,19 -68,49 -201,180 -470,321 -761,400 -76,21 -82,24 -40,20 28,-2 95,-19 150,-36 z m -167,4 c 351,-79 654,-245 908,-498 106,-107 207,-233 198,-247 -3,-5 21,-51 52,-102 63,-100 128,-235 165,-337 12,-36 26,-67 30,-70 4,-3 17,-41 29,-85 86,-328 75,-704 -29,-1022 -41,-124 -43,-132 -26,-98 27,56 84,240 104,340 78,388 27,812 -142,1166 -44,91 -52,123 -22,83 24,-33 115,-253 141,-342 80,-279 100,-592 54,-857 -38,-214 -128,-460 -234,-638 -35,-59 -62,-107 -60,-107 11,0 117,176 168,277 109,218 175,461 197,723 20,238 -17,522 -101,764 -112,324 -351,660 -623,874 -43,34 -72,62 -65,62 21,0 212,-165 289,-250 40,-43 96,-111 126,-150 29,-40 60,-78 68,-87 19,-19 82,-127 133,-228 199,-400 249,-889 136,-1340 -74,-291 -226,-579 -429,-808 -48,-54 -92,-96 -100,-95 -7,2 -48,-28 -91,-66 -43,-38 -111,-94 -151,-124 -40,-30 -73,-56 -73,-59 0,-5 11,1 97,59 409,273 727,745 835,1238 12,58 28,110 34,115 14,12 34,174 34,279 0,79 15,104 24,39 2,-21 2,32 -2,117 -3,85 -5,173 -5,195 2,59 -17,168 -31,185 -8,8 -19,40 -26,70 -48,209 -158,446 -314,683 -10,15 -14,27 -9,27 5,0 17,-13 26,-30 10,-16 23,-27 30,-24 7,2 32,-29 59,-73 272,-454 366,-977 267,-1492 -11,-56 -24,-110 -29,-120 -6,-9 -26,-67 -46,-129 -19,-62 -49,-143 -65,-179 -16,-36 -28,-68 -25,-70 4,-5 96,210 96,226 0,6 5,10 12,9 14,-4 70,173 97,310 52,259 55,578 6,810 -7,34 -9,62 -4,62 11,0 16,-19 36,-135 12,-74 17,-157 17,-320 0,-227 -9,-313 -54,-504 -11,-46 -19,-86 -16,-88 6,-6 53,195 73,312 21,129 27,550 7,563 -6,4 -16,43 -23,87 -26,173 -96,401 -175,578 -14,31 -22,57 -18,57 5,0 16,-19 26,-42 10,-24 27,-50 36,-58 42,-35 133,-339 166,-550 22,-140 25,-461 6,-595 -20,-136 -59,-303 -102,-430 -44,-133 -148,-355 -165,-355 -6,0 -36,-40 -65,-89 -191,-323 -482,-600 -831,-790 -107,-59 -77,-50 53,15 223,112 396,236 591,424 211,203 364,414 492,675 134,275 204,525 240,858 4,31 11,57 16,57 5,0 7,-10 5,-22 -3,-13 -7,-54 -10,-93 -4,-52 -2,-62 4,-40 15,48 27,319 20,455 -4,75 -2,128 3,131 6,4 7,28 5,53 -3,25 -2,46 2,46 14,0 20,-61 26,-260 10,-280 -16,-497 -88,-755 -35,-128 -121,-353 -147,-387 -9,-12 -39,-63 -65,-113 -103,-194 -240,-383 -405,-560 l -85,-90 108,105 c 229,223 449,544 557,813 12,31 27,57 32,57 14,0 -1,-38 -78,-195 -118,-240 -249,-433 -415,-609 -47,-50 -71,-80 -55,-68 17,13 66,63 110,111 420,462 665,1033 701,1638 4,62 11,113 15,113 11,0 11,1 -2,-161 -25,-323 -120,-676 -256,-954 -18,-38 -27,-62 -19,-52 28,36 129,274 177,417 54,163 93,328 111,471 9,72 15,96 25,92 10,-4 13,8 14,43 1,27 5,60 10,74 15,43 0,-154 -22,-277 -23,-133 -66,-303 -107,-424 -42,-121 -122,-309 -133,-309 -5,0 -23,-28 -40,-62 -77,-155 -215,-364 -326,-495 -25,-29 -37,-50 -29,-47 42,16 5,-32 -111,-146 -71,-69 -103,-105 -73,-80 89,72 299,287 385,395 180,225 369,558 460,810 45,126 57,152 51,108 -16,-105 -193,-487 -309,-670 -126,-197 -292,-400 -456,-555 -72,-68 -84,-83 -47,-57 71,50 288,267 389,391 98,120 234,318 297,431 38,70 60,100 60,81 0,-10 -75,-146 -117,-214 -19,-30 -28,-48 -20,-40 30,29 150,237 217,375 68,140 158,368 180,458 7,27 18,47 26,47 19,0 18,-7 -16,-114 -107,-333 -307,-702 -534,-986 -110,-137 -286,-322 -301,-316 -7,2 -44,-24 -83,-59 -113,-101 -185,-159 -294,-236 -116,-82 -142,-103 -83,-69 81,47 253,167 350,244 131,103 411,384 515,516 165,210 315,457 420,691 32,72 61,133 64,136 29,29 -40,-133 -136,-320 -106,-207 -283,-470 -422,-627 l -40,-45 39,37 c 22,21 74,80 115,132 69,88 90,108 90,89 0,-12 -103,-138 -212,-260 -145,-162 -355,-347 -543,-478 -137,-95 -111,-86 40,15 117,79 271,197 371,287 39,34 76,63 81,63 13,0 233,223 311,315 86,102 185,235 265,358 79,120 104,138 36,25 -154,-255 -421,-564 -709,-822 -44,-39 -30,-30 40,25 189,151 430,403 598,625 66,88 219,318 246,372 10,19 20,31 23,28 15,-14 -189,-329 -322,-496 -159,-201 -419,-460 -614,-610 -153,-119 -289,-212 -300,-205 -6,3 -66,-28 -134,-69 -68,-41 -150,-87 -181,-103 -31,-15 -56,-33 -56,-41 0,-7 -23,-23 -50,-34 -28,-11 -49,-23 -46,-25 5,-5 178,73 345,157 545,273 1022,664 1396,1145 43,55 83,102 89,104 8,3 8,0 0,-10 -6,-8 -39,-52 -75,-99 -35,-46 -89,-115 -121,-152 -32,-37 -58,-73 -58,-81 0,-8 -75,-88 -168,-178 -233,-228 -470,-416 -722,-573 -198,-123 -158,-107 65,25 385,229 795,582 1098,944 14,17 28,28 31,25 15,-16 -306,-356 -479,-508 -66,-58 -129,-115 -140,-127 -51,-57 -420,-312 -577,-399 -38,-21 -68,-40 -68,-43 0,-2 30,12 68,33 385,212 673,420 995,717 59,55 110,98 113,95 6,-6 -192,-193 -306,-289 -102,-87 -228,-184 -327,-253 -46,-32 -83,-60 -83,-62 0,-7 187,121 285,195 44,32 83,57 88,54 9,-5 -110,-97 -258,-198 -110,-75 -142,-101 -80,-65 218,128 503,345 788,600 31,29 57,48 57,43 0,-25 -353,-324 -560,-475 -212,-154 -595,-383 -623,-373 -7,3 -80,-28 -163,-69 -266,-132 -536,-234 -844,-320 -161,-45 -138,-46 43,-2 241,58 647,190 792,256 33,15 119,54 190,85 384,170 785,408 1140,679 105,80 165,107 73,33 -81,-67 -273,-207 -373,-274 -98,-65 -270,-173 -277,-173 -3,0 -58,-31 -124,-70 -289,-168 -540,-281 -919,-411 -93,-32 -166,-58 -161,-59 17,0 317,91 462,141 379,131 764,307 1122,513 84,49 156,86 158,83 3,-3 -43,-34 -103,-70 -354,-210 -698,-373 -1093,-518 -102,-38 -180,-69 -174,-69 6,0 90,26 187,59 129,43 177,55 177,45 0,-8 2,-14 5,-14 11,0 361,129 459,169 55,23 102,39 105,35 3,-3 -1,-9 -9,-14 -81,-51 363,141 597,259 57,28 104,51 106,51 1,0 3,-9 4,-20 2,-24 -106,-81 -372,-198 -295,-129 -744,-296 -822,-306 -21,-3 -97,-23 -169,-45 -73,-23 -217,-63 -320,-90 -104,-27 -183,-50 -176,-50 44,-3 524,114 801,194 170,49 561,178 639,210 17,8 32,10 32,5 0,-14 -46,-32 -325,-125 -362,-122 -667,-206 -1025,-284 -187,-41 -133,-38 101,4 512,94 1163,257 1546,389 40,14 75,21 77,17 3,-4 -56,-27 -130,-51 -74,-25 -132,-46 -127,-47 4,-2 79,19 166,46 86,27 157,45 157,40 0,-4 -21,-15 -47,-23 -27,-7 -113,-34 -193,-59 -203,-63 -524,-150 -768,-207 -211,-50 -254,-66 -77,-30 88,18 118,20 104,5 -8,-7 -289,-62 -539,-105 -124,-21 -218,-39 -209,-39 21,-1 367,44 569,74 324,49 523,86 927,171 166,35 219,42 250,36 l 38,-9 -39,-11 c -22,-6 -49,-9 -60,-6 -12,2 -104,-14 -206,-36 -241,-54 -345,-75 -570,-116 -225,-41 -156,-36 155,12 231,36 665,110 698,120 9,3 17,1 17,-4 0,-30 -1359,-244 -1446,-227 -17,3 -119,-6 -225,-19 -206,-26 -446,-51 -619,-65 -104,-8 -104,-8 65,-9 94,0 308,5 477,10 169,6 314,8 322,5 31,-12 672,-18 971,-8 171,5 312,7 314,5 2,-2 2,-6 -1,-9 -3,-3 -223,-11 -489,-18 -469,-12 -478,-12 -304,-20 99,-4 350,-10 558,-13 338,-4 377,-6 377,-21 0,-14 -14,-15 -122,-9 -68,3 -395,8 -728,10 l -605,5 335,-14 c 563,-22 640,-27 640,-37 0,-6 -37,-7 -97,-4 -203,12 -1390,47 -1528,44 -71,-1 -66,-2 42,-8 241,-15 313,-22 313,-32 0,-7 -35,-9 -102,-5 l -103,5 105,-13 c 58,-7 114,-11 125,-8 27,5 586,-58 910,-103 261,-36 807,-124 814,-130 15,-14 -29,-10 -215,21 -286,48 -298,43 -22,-9 125,-23 231,-45 234,-49 12,-12 -13,-8 -271,38 -442,79 -1314,203 -1363,193 -9,-2 28,-9 83,-17 168,-22 567,-89 810,-137 262,-51 267,-53 260,-64 -3,-4 100,-33 228,-64 203,-50 289,-75 251,-76 -7,0 -94,20 -195,45 -101,24 -244,58 -318,74 -74,17 -137,35 -141,41 -14,23 -640,130 -1114,190 -284,36 -340,38 -131,4 545,-87 1154,-227 1650,-380 167,-52 225,-73 199,-74 -6,0 -76,20 -155,44 -306,93 -885,244 -895,233 -3,-3 28,-13 68,-22 144,-35 523,-147 726,-214 241,-81 267,-90 260,-97 -3,-2 -93,24 -199,60 -107,35 -264,85 -349,110 -202,59 -807,209 -823,203 -7,-2 6,-7 28,-11 22,-4 45,-11 50,-15 6,-5 65,-23 133,-41 67,-18 122,-37 122,-42 0,-12 4,-13 -199,41 -239,64 -511,125 -518,117 -4,-3 1,-6 9,-6 8,0 107,-25 219,-56 263,-71 654,-202 889,-297 187,-75 590,-265 590,-279 0,-4 -48,16 -107,43 -175,82 -458,202 -608,259 -77,28 -158,60 -180,70 -138,62 -949,290 -987,278 -5,-2 52,-21 129,-42 76,-21 157,-46 180,-57 23,-10 47,-19 52,-19 25,0 422,-149 604,-227 108,-46 201,-82 206,-79 5,3 107,-43 227,-103 233,-116 478,-251 455,-251 -7,0 -47,18 -87,41 -41,22 -74,38 -74,36 0,-3 32,-24 71,-47 125,-74 66,-54 -72,25 -243,139 -850,427 -866,412 -2,-3 15,-12 39,-22 108,-43 398,-190 398,-201 0,-8 19,-23 43,-35 68,-35 297,-170 303,-180 10,-16 -4,-10 -163,82 -216,124 -534,281 -547,270 -7,-6 -51,9 -116,38 -137,62 -361,153 -366,149 -1,-2 38,-21 89,-42 152,-64 422,-199 592,-296 256,-147 667,-428 682,-466 12,-33 -9,-22 -110,54 -58,44 -159,116 -225,161 -66,44 -122,84 -124,90 -7,20 -282,177 -513,292 -132,65 -319,150 -415,189 -97,39 -175,75 -175,82 0,8 -62,32 -155,61 -170,53 -569,157 -597,156 -10,0 68,-24 172,-54 526,-148 1004,-368 1462,-673 79,-52 141,-98 138,-102 -3,-5 -53,24 -113,64 -216,147 -493,302 -730,411 -78,36 -146,65 -150,65 -4,0 79,-45 183,-98 105,-54 239,-128 299,-165 59,-37 113,-67 118,-67 12,0 201,-129 328,-224 178,-133 528,-442 515,-454 -3,-3 -18,7 -33,21 -16,15 -33,27 -39,27 -7,0 -49,35 -95,78 -184,169 -430,362 -637,497 -165,108 -355,215 -362,204 -3,-6 -69,22 -160,70 -212,110 -581,264 -759,316 -57,17 -8,-6 75,-36 567,-198 1170,-601 1597,-1064 131,-142 273,-313 265,-321 -2,-3 -46,46 -97,108 -131,159 -441,464 -597,589 -73,58 -188,143 -255,188 -132,88 -125,81 41,-43 139,-103 222,-176 219,-190 -2,-6 53,-68 122,-136 149,-148 254,-267 243,-273 -5,-3 -37,29 -73,70 -173,200 -477,466 -717,630 -107,72 -185,120 -123,76 137,-99 274,-206 361,-280 225,-195 483,-484 645,-723 92,-136 174,-273 174,-291 0,-8 -22,22 -48,67 -127,210 -304,449 -432,584 l -71,75 63,-75 c 150,-177 326,-425 312,-438 -4,-4 -9,-1 -11,6 -7,18 -166,240 -203,282 -16,19 6,-16 49,-78 128,-180 291,-457 291,-493 0,-7 -30,40 -66,106 -146,263 -301,477 -520,717 -282,309 -583,539 -987,752 -156,83 -178,86 -32,5 184,-102 474,-300 475,-324 0,-5 52,-56 114,-112 268,-239 518,-562 699,-903 66,-125 140,-290 132,-298 -7,-7 -7,-7 -44,78 -90,206 -231,448 -370,633 -88,118 -202,255 -212,256 -4,1 -42,37 -85,82 -80,82 -227,213 -319,284 -43,33 -42,31 10,-15 119,-105 332,-327 419,-435 235,-295 409,-618 528,-980 27,-82 47,-161 45,-175 -4,-30 0,-40 -66,166 -110,342 -296,689 -521,975 -111,141 -368,393 -517,508 -67,51 -120,99 -117,105 5,13 -224,151 -381,229 -110,55 -344,151 -351,145 -2,-2 41,-23 96,-47 500,-218 924,-574 1229,-1031 95,-144 248,-426 237,-437 -8,-9 -8,-9 -61,97 -74,148 -135,250 -151,250 -9,0 8,-41 50,-122 133,-255 228,-547 275,-846 28,-182 35,-262 22,-262 -6,0 -11,17 -11,38 0,124 -69,458 -134,652 -39,117 -106,283 -112,277 -2,-2 6,-28 20,-58 38,-88 112,-326 140,-449 30,-137 50,-273 43,-292 -7,-20 -12,2 -32,132 -62,418 -245,846 -517,1207 -129,172 -372,409 -570,557 -63,47 -42,22 25,-30 97,-76 301,-279 390,-389 112,-139 226,-316 303,-470 70,-143 146,-334 137,-349 -3,-5 -27,46 -53,112 -134,343 -310,611 -575,878 -195,196 -365,328 -573,443 -117,65 -132,66 -26,2 44,-26 89,-55 100,-64 10,-9 64,-50 119,-91 55,-41 134,-106 177,-145 47,-44 82,-69 91,-66 15,7 138,-125 237,-255 248,-325 410,-708 475,-1125 32,-202 29,-629 -5,-693 -4,-10 -16,-61 -25,-115 -16,-89 -33,-134 -36,-90 -1,17 -2,17 -6,1 -2,-10 -8,-18 -12,-18 -4,0 2,49 15,110 36,176 47,322 41,549 -8,323 -61,571 -185,861 -24,58 -45,115 -47,126 -8,73 -281,469 -385,559 -13,11 5,-14 39,-55 195,-233 368,-562 451,-858 56,-197 108,-571 81,-580 -7,-2 -11,-33 -11,-87 0,-117 -17,-270 -46,-413 -24,-121 -81,-318 -90,-309 -2,2 12,62 31,133 67,242 79,338 80,622 0,173 -3,255 -11,260 -6,4 -21,68 -33,141 -54,323 -172,622 -352,891 -73,110 -216,289 -255,320 -10,8 15,-25 55,-75 40,-49 103,-135 139,-190 84,-125 206,-366 191,-376 -8,-4 0,-40 24,-113 79,-234 110,-431 111,-691 0,-263 -33,-465 -116,-710 -32,-95 -35,-101 -43,-93 -3,2 9,45 25,94 41,120 75,256 97,389 27,166 24,488 -5,656 -28,155 -60,279 -108,406 -36,99 -151,340 -165,349 -5,3 18,-51 51,-118 106,-220 157,-401 201,-709 17,-126 20,-178 15,-289 -16,-330 -85,-598 -226,-875 -67,-134 -166,-291 -197,-316 -20,-16 -25,-24 72,125 31,48 84,141 117,207 60,120 162,407 156,438 -2,9 -12,-15 -22,-54 -10,-38 -22,-74 -26,-80 -5,-5 -24,-52 -44,-103 -66,-173 -216,-435 -300,-525 -14,-15 -30,-36 -36,-47 -6,-11 -18,-20 -27,-20 -11,0 -7,9 16,32 136,140 311,469 382,717 17,58 37,128 45,154 48,158 63,517 30,732 -42,273 -136,538 -271,769 -48,82 -36,44 24,-76 69,-137 112,-253 151,-403 43,-163 82,-465 61,-465 -5,0 -12,33 -16,73 -12,134 -26,232 -46,317 -25,109 -69,253 -75,248 -2,-3 5,-35 16,-71 99,-321 107,-725 21,-1059 -39,-151 -80,-259 -152,-403 -63,-126 -85,-162 -94,-153 -4,3 8,28 25,56 139,226 265,653 258,878 -1,43 -2,48 -5,19 -36,-450 -196,-842 -474,-1162 -41,-48 -210,-200 -296,-266 -80,-61 -199,-137 -215,-137 -7,0 23,23 67,51 251,161 480,398 631,655 126,215 222,482 254,714 6,41 12,138 14,215 2,77 2,118 0,90 -25,-348 -65,-544 -153,-750 -41,-96 -45,-67 -5,37 245,631 146,1320 -266,1867 -116,153 -265,297 -410,396 -58,39 -53,34 78,-77 326,-276 533,-658 608,-1119 90,-557 -104,-1132 -520,-1542 -86,-85 -236,-205 -279,-224 -12,-5 -68,-33 -125,-62 -56,-29 -108,-51 -115,-48 -6,2 24,22 68,44 100,51 239,143 327,217 83,69 226,230 313,351 160,223 293,576 309,820 l 5,70 -9,-70 c -12,-81 -65,-303 -87,-357 -23,-57 -33,-36 -12,24 69,206 93,377 86,618 -7,240 -42,407 -129,618 -39,95 -46,88 -8,-9 39,-101 70,-217 60,-221 -5,-2 -3,-41 4,-88 68,-422 -28,-853 -268,-1215 -73,-110 -285,-345 -311,-345 -7,0 -30,-14 -51,-31 -107,-87 -323,-209 -449,-255 -41,-14 -100,-54 -80,-54 3,0 51,18 108,40 88,35 228,108 305,158 12,8 22,10 22,4 0,-13 -93,-70 -207,-126 -374,-186 -821,-223 -1228,-104 -106,31 -122,38 -106,47 9,6 2,12 -25,21 -66,22 -245,115 -343,180 -123,80 -353,309 -437,435 -194,287 -285,559 -303,910 -7,129 -8,133 -9,47 -7,-408 155,-841 430,-1149 125,-140 249,-242 416,-340 50,-30 92,-58 92,-62 0,-9 117,-62 199,-89 30,-10 57,-24 59,-30 2,-7 -32,1 -80,18 -470,172 -850,544 -1028,1005 -40,104 -80,253 -85,313 -2,26 -9,97 -15,157 -19,166 -1,446 29,465 7,4 19,40 27,81 40,193 131,408 251,589 89,133 267,317 400,415 45,33 80,61 78,63 -7,7 -123,-68 -212,-137 -171,-132 -359,-351 -472,-549 -28,-49 -49,-96 -46,-104 3,-8 -5,-39 -18,-69 -14,-29 -39,-99 -57,-154 -149,-465 -111,-943 110,-1381 83,-164 173,-294 291,-418 47,-50 88,-99 92,-108 8,-22 138,-126 245,-195 237,-155 538,-261 820,-288 39,-4 72,-11 72,-16 0,-11 12,-12 -122,6 -136,18 -285,53 -396,94 -45,16 -80,26 -77,20 12,-19 -21,-7 -126,45 -303,152 -545,367 -732,651 -86,132 -89,122 -4,-13 45,-71 44,-96 -1,-30 -90,131 -191,348 -237,505 -59,204 -70,290 -70,543 1,216 3,245 28,360 76,359 230,659 468,914 73,79 229,209 326,273 71,48 50,64 -27,21 -221,-125 -480,-357 -646,-578 -299,-399 -449,-876 -431,-1370 6,-176 38,-380 83,-532 3,-10 1,-18 -4,-18 -6,0 -22,49 -36,108 -99,413 -82,815 50,1212 51,153 147,357 223,473 28,42 49,77 46,77 -8,0 -100,-141 -150,-229 -61,-108 -147,-321 -190,-470 -122,-427 -111,-890 34,-1318 49,-145 55,-203 7,-70 -112,311 -136,430 -145,732 l -8,220 -1,-185 c -2,-164 7,-297 24,-383 3,-15 1,-27 -4,-27 -38,0 -51,536 -19,735 32,195 96,414 162,560 39,86 48,112 37,100 -19,-19 -102,-215 -141,-332 -69,-208 -106,-416 -115,-658 -3,-77 -3,-134 0,-127 14,29 21,6 27,-87 10,-149 44,-328 93,-500 5,-16 4,-22 -3,-18 -12,8 -46,128 -74,261 -16,78 -18,82 -13,31 8,-87 -11,-58 -26,40 -7,44 -16,179 -20,300 l -6,220 -2,-197 c -2,-209 13,-365 48,-516 23,-96 22,-92 12,-92 -9,0 -35,109 -59,247 -25,145 -25,548 0,698 26,152 78,350 125,477 63,168 205,440 247,473 7,6 46,55 87,110 92,123 203,246 300,332 81,73 118,109 83,82 -458,-350 -780,-861 -901,-1430 -10,-46 -23,-89 -29,-96 -23,-22 -40,-216 -40,-452 0,-167 -3,-235 -11,-238 -37,-12 -22,604 15,651 5,6 12,34 16,61 4,28 22,109 40,180 123,481 401,928 768,1236 67,57 143,118 170,137 26,19 47,36 47,39 0,3 -30,-17 -67,-43 -278,-195 -504,-425 -685,-694 -39,-58 -75,-107 -81,-109 -42,-15 150,255 313,440 l 91,104 -100,-103 c -389,-399 -652,-925 -732,-1464 -6,-43 -16,-78 -21,-78 -5,0 -7,15 -4,33 22,132 41,227 65,322 16,61 28,119 28,130 0,11 3,31 7,45 5,18 5,21 -3,11 -5,-8 -26,-72 -47,-143 -20,-70 -41,-125 -45,-122 -8,5 4,53 48,189 64,199 174,436 288,620 30,50 44,77 30,60 -74,-89 -238,-397 -310,-584 -18,-47 -38,-87 -44,-89 -13,-4 56,173 119,305 196,411 500,779 870,1052 46,35 89,69 95,76 18,23 125,87 255,152 69,35 120,63 114,63 -18,0 -295,-142 -406,-210 -116,-69 -229,-148 -360,-250 -117,-91 -398,-375 -494,-500 -195,-252 -356,-532 -460,-799 -15,-40 -30,-68 -32,-62 -8,24 111,294 195,445 68,122 169,280 230,358 24,32 42,58 39,58 -4,0 -40,-46 -81,-103 -42,-56 -86,-113 -99,-127 -57,-60 -214,-342 -298,-535 -22,-49 -37,-76 -34,-58 8,45 96,236 177,381 183,326 395,588 674,832 163,142 178,158 89,91 -263,-198 -533,-492 -735,-799 -48,-73 -90,-139 -92,-145 -2,-7 -8,-9 -11,-5 -4,3 20,51 54,105 418,665 1009,1136 1758,1398 51,18 96,36 100,39 3,4 0,5 -8,2 -8,-3 -64,-19 -125,-36 -259,-74 -670,-259 -933,-418 -275,-168 -471,-322 -702,-552 -169,-169 -281,-297 -398,-452 -36,-49 -69,-88 -74,-88 -23,0 260,356 392,493 174,180 388,361 595,502 110,75 142,101 80,65 -132,-77 -358,-239 -510,-365 -138,-114 -357,-328 -371,-361 -7,-17 -44,-67 -81,-110 -38,-43 -81,-96 -97,-117 -16,-21 -31,-35 -34,-32 -3,3 9,24 27,48 l 33,42 -32,-33 c -63,-67 -38,-23 42,73 238,288 601,610 913,810 104,67 133,91 60,50 -90,-50 -358,-232 -463,-314 -57,-45 -105,-81 -107,-81 -21,0 15,33 133,123 162,123 325,232 483,321 143,82 161,94 79,55 -249,-120 -590,-343 -838,-547 -63,-51 -117,-91 -120,-87 -3,3 9,18 28,33 18,16 31,33 29,40 -2,6 -44,-23 -92,-64 -49,-42 -91,-74 -94,-71 -9,10 139,135 332,280 126,95 331,232 428,287 31,17 57,33 57,35 0,9 -119,-50 -221,-111 -247,-146 -547,-359 -737,-524 -45,-38 -83,-70 -85,-70 -1,0 -3,9 -4,20 -1,13 24,41 75,86 109,93 266,212 294,223 13,5 77,46 141,91 65,45 189,125 275,176 86,51 164,98 172,104 25,17 -60,-25 -128,-64 -34,-19 -68,-33 -76,-30 -33,13 -426,-239 -723,-464 -18,-13 -33,-20 -33,-15 0,5 32,33 70,62 39,30 70,56 70,58 0,5 -87,-57 -133,-94 -28,-23 -57,-30 -57,-15 0,11 185,147 342,251 75,50 138,94 140,99 5,15 259,156 443,246 213,104 375,174 580,248 88,31 154,57 147,58 -6,0 -99,-29 -205,-64 -280,-93 -644,-241 -741,-302 -22,-14 -128,-73 -234,-130 -106,-57 -252,-141 -325,-187 -157,-98 -147,-93 -147,-70 0,21 36,46 246,168 272,160 615,325 901,436 62,23 111,44 109,46 -5,6 -341,-121 -501,-189 -175,-74 -543,-256 -693,-342 -62,-35 -112,-60 -110,-54 11,33 573,321 855,439 83,35 150,65 149,67 -9,8 -402,-154 -619,-255 -76,-35 -147,-66 -157,-68 -10,-2 -32,-11 -49,-19 -16,-9 -37,-16 -46,-16 -8,0 -42,-14 -75,-30 -33,-17 -60,-27 -60,-22 0,4 67,41 150,82 82,41 148,76 146,78 -2,2 -70,-28 -150,-67 -80,-38 -146,-65 -146,-60 0,5 26,22 58,38 66,35 65,40 -4,11 -26,-11 -49,-18 -52,-15 -9,8 7,18 83,52 388,173 842,343 1157,433 65,19 116,35 114,37 -16,16 -647,-172 -936,-279 -74,-28 -145,-50 -156,-50 -12,1 -87,-25 -168,-57 -88,-34 -146,-53 -146,-46 0,7 15,19 33,27 33,15 29,16 -12,3 -17,-5 -22,-4 -19,6 8,24 601,232 900,315 76,21 136,40 134,42 -11,10 -521,-133 -811,-229 -197,-64 -246,-75 -219,-50 10,11 383,132 557,182 65,18 115,35 110,36 -11,4 -359,-91 -538,-146 -113,-35 -150,-42 -134,-27 10,10 460,141 675,197 163,42 239,57 244,50 4,-8 45,-2 136,20 71,17 221,51 334,74 113,24 198,44 190,44 -25,2 -399,-65 -615,-109 -215,-44 -583,-131 -757,-178 -67,-18 -108,-26 -111,-19 -2,7 -14,7 -37,-1 -38,-14 -110,-16 -110,-4 0,4 34,17 76,27 50,12 70,21 58,25 -22,8 -10,16 39,25 21,4 36,10 33,12 -2,3 -48,-5 -101,-17 -53,-12 -99,-19 -102,-16 -3,3 0,8 8,10 66,22 788,172 924,192 28,4 45,9 38,11 -13,5 -529,-79 -631,-103 -37,-8 -119,-26 -182,-39 -63,-14 -125,-27 -137,-30 -13,-3 -23,-1 -23,5 0,5 10,10 23,11 21,1 21,1 -3,9 -36,11 -23,14 205,56 182,33 232,44 195,44 -7,0 -54,-6 -104,-14 -50,-8 -127,-20 -171,-26 -44,-6 -90,-14 -102,-17 -13,-3 -23,-1 -23,5 0,5 122,29 270,53 149,24 270,47 270,50 0,8 2,8 -320,-36 -219,-30 -251,-33 -238,-20 6,6 276,48 548,85 228,31 231,38 5,14 -81,-8 -153,-13 -159,-11 -6,2 -63,-2 -126,-8 -111,-12 -130,-11 -118,1 4,3 152,20 330,39 365,37 342,45 -47,15 -143,-11 -275,-20 -294,-20 -59,0 -24,13 52,20 57,6 44,7 -61,6 -72,-1 -132,2 -132,7 0,4 3,7 8,8 4,0 90,7 192,14 l 185,14 -192,-5 c -172,-5 -193,-4 -193,10 0,12 12,16 48,18 l 47,2 -47,3 c -34,3 -48,8 -48,19 0,11 16,14 68,16 l 67,2 -67,3 c -56,3 -68,7 -68,21 0,15 14,17 137,16 101,0 110,0 36,3 -60,2 -103,8 -103,14 0,6 66,8 188,5 l 187,-4 -220,11 c -203,11 -220,13 -223,31 -4,18 2,19 109,13 63,-4 195,-9 294,-11 l 180,-5 -195,15 c -107,9 -197,17 -199,20 -13,12 24,12 220,-1 317,-21 328,-22 324,-15 -2,4 -48,10 -102,14 -151,10 -627,57 -632,62 -12,12 16,12 149,-2 88,-9 172,-12 215,-7 l 70,7 -185,23 c -102,13 -186,27 -188,33 -2,5 -17,10 -33,10 -16,0 -29,5 -29,10 0,12 -11,13 117,-5 59,-8 151,-16 203,-19 l 95,-4 -160,28 c -88,16 -181,34 -207,41 -92,24 -47,25 95,2 226,-36 557,-83 580,-82 12,1 -14,8 -58,15 -405,71 -542,98 -555,109 -8,7 -34,16 -57,20 -24,4 -45,11 -49,16 -7,12 -4,12 121,-12 61,-12 117,-27 125,-34 27,-22 592,-110 680,-107 14,1 84,-8 157,-18 208,-31 187,-22 -57,25 -349,67 -961,205 -979,221 -16,14 24,7 164,-27 88,-21 178,-41 200,-43 22,-3 101,-18 175,-34 198,-44 351,-74 356,-70 4,4 -268,67 -318,73 -29,4 -364,91 -508,133 -45,13 -66,24 -68,36 -3,13 1,16 15,12 179,-54 623,-169 629,-163 2,2 -67,23 -154,47 -139,38 -442,130 -482,146 -8,4 -10,8 -5,10 6,2 45,-7 88,-20 46,-14 80,-20 83,-14 3,5 13,6 23,3 44,-17 313,-96 317,-93 2,2 -36,17 -84,32 -48,16 -89,32 -92,36 -3,3 -78,33 -168,64 -89,32 -165,63 -169,69 -4,7 0,8 13,3 166,-67 977,-316 990,-303 2,2 -26,12 -63,22 -176,46 -640,207 -885,307 -58,23 -80,46 -33,34 14,-4 25,-2 25,3 0,5 29,-2 65,-16 35,-14 63,-30 62,-36 -3,-16 460,-179 808,-284 114,-34 415,-111 456,-117 19,-2 158,-29 310,-60 310,-63 388,-72 169,-20 -478,113 -935,266 -1365,459 -179,80 -505,245 -505,255 0,5 93,-38 208,-95 205,-102 511,-239 518,-232 2,2 -40,23 -94,47 -200,90 -582,288 -582,302 0,4 105,-46 233,-112 374,-191 636,-301 1029,-431 130,-44 242,-79 250,-79 7,1 -66,29 -162,64 -397,143 -794,329 -1118,523 -91,55 -87,52 -80,58 3,3 56,-25 119,-61 255,-149 536,-285 829,-404 153,-62 587,-210 612,-210 7,1 -72,31 -177,69 -104,37 -230,85 -280,105 -136,56 -494,235 -634,315 -209,121 -571,364 -571,383 0,5 42,-20 93,-56 244,-174 583,-373 841,-496 192,-91 223,-98 52,-10 -224,114 -456,251 -456,269 0,4 60,-27 132,-70 273,-163 658,-343 947,-443 74,-26 135,-45 137,-43 2,2 -51,25 -119,51 -150,59 -464,211 -612,295 -153,88 -428,273 -565,380 -148,115 -302,251 -315,277 -6,12 -24,33 -40,47 -17,15 -25,27 -20,27 6,0 49,-35 97,-79 130,-116 240,-208 363,-302 97,-73 186,-133 485,-326 74,-48 416,-223 435,-223 6,0 -46,30 -115,66 -317,167 -569,336 -840,563 -126,106 -400,370 -400,386 0,6 57,-46 127,-115 351,-344 740,-623 1162,-835 120,-60 287,-135 299,-135 4,0 -56,32 -133,71 -349,176 -659,391 -949,656 -187,170 -463,477 -454,503 2,6 30,-21 62,-60 101,-123 269,-302 372,-395 93,-84 90,-80 -46,60 -182,187 -373,415 -348,415 7,0 60,-57 118,-127 115,-139 342,-372 460,-473 50,-42 34,-24 -48,55 -68,64 -173,174 -234,244 -128,146 -288,356 -288,379 0,8 2,13 4,11 2,-2 41,-53 86,-114 253,-336 581,-653 905,-876 123,-85 135,-92 135,-85 0,2 -36,29 -80,60 -275,193 -634,542 -790,766 -166,242 -208,307 -207,333 0,15 1,27 2,27 7,0 116,-182 112,-187 -7,-7 78,-123 192,-263 146,-179 410,-434 591,-570 61,-45 26,-11 -96,93 -114,97 -275,262 -380,387 -153,182 -374,511 -374,556 0,11 22,-18 49,-63 60,-99 150,-233 157,-233 2,0 -13,26 -34,58 -57,83 -154,254 -148,259 3,3 14,-10 25,-28 208,-354 421,-625 671,-855 l 85,-78 -68,70 c -37,39 -65,73 -61,77 4,4 50,-35 103,-86 53,-51 144,-130 203,-177 105,-85 258,-195 258,-187 0,3 -35,31 -77,63 -124,92 -249,203 -373,331 -196,200 -294,326 -425,543 -113,188 -280,529 -238,485 6,-5 32,-57 58,-115 57,-124 156,-302 223,-403 26,-40 54,-84 61,-99 20,-39 138,-187 246,-308 149,-166 363,-354 540,-474 79,-54 66,-41 -56,55 -119,93 -255,220 -351,324 -45,50 -87,92 -94,95 -23,9 -155,181 -252,327 -51,78 -129,211 -171,295 -80,157 -178,394 -168,404 6,6 37,-60 37,-78 0,-6 6,-8 13,-5 10,4 23,-17 42,-66 101,-263 270,-549 472,-802 121,-152 359,-388 383,-380 12,4 33,-7 64,-34 82,-71 209,-167 306,-230 105,-69 94,-56 -25,29 -131,93 -195,148 -330,284 -230,230 -391,456 -536,751 -134,274 -262,685 -235,757 6,15 13,28 16,28 3,0 15,-51 27,-113 12,-61 34,-152 48,-202 29,-103 86,-267 91,-262 2,1 -17,64 -41,138 -66,207 -111,444 -91,478 11,18 26,13 26,-9 0,-11 4,-20 9,-20 5,0 14,-37 21,-82 22,-145 126,-532 129,-482 1,6 -6,31 -15,57 -9,26 -14,52 -12,59 3,7 15,-18 28,-57 189,-577 556,-1063 1055,-1399 55,-37 109,-72 120,-77 21,-10 21,-10 -105,80 -158,112 -365,308 -460,434 -19,26 -40,47 -47,47 -30,0 -191,241 -282,420 -81,158 -164,372 -200,510 -62,243 -95,538 -75,675 7,53 9,38 15,-115 4,-96 14,-222 24,-280 33,-209 106,-467 170,-602 29,-60 25,-47 -16,66 -24,64 -27,77 -13,72 12,-5 15,-2 9,11 -21,56 -76,294 -90,393 -28,197 -32,560 -7,560 4,0 6,-75 4,-167 -9,-463 110,-905 350,-1303 249,-414 662,-779 1096,-969 51,-23 96,-41 100,-41 4,0 -47,29 -113,63 -272,142 -481,306 -657,516 -263,315 -433,690 -494,1092 -48,312 -5,720 106,1029 50,138 68,180 79,180 5,0 -6,-38 -24,-84 -104,-256 -145,-463 -152,-752 -8,-301 19,-480 113,-767 118,-364 374,-724 694,-978 121,-97 310,-221 310,-205 0,3 -21,18 -47,33 -216,126 -489,393 -623,611 -17,29 -40,57 -50,62 -24,13 -127,217 -174,343 -99,265 -143,558 -126,842 4,66 4,122 0,125 -21,13 48,322 107,480 59,160 208,440 234,440 5,0 -8,-25 -28,-57 -23,-33 -33,-58 -27,-60 7,-2 -11,-48 -46,-116 -132,-255 -206,-530 -225,-837 -7,-114 8,-335 30,-440 11,-52 13,-55 9,-17 -3,26 -9,86 -14,135 -26,241 3,529 76,770 38,126 45,98 9,-35 -49,-177 -66,-291 -72,-478 -18,-543 175,-1047 553,-1444 75,-79 221,-209 265,-236 8,-6 -3,5 -25,24 -23,19 -97,91 -167,160 -436,438 -625,1090 -494,1708 83,393 290,754 584,1018 106,96 257,205 283,205 7,0 -19,-21 -57,-47 -156,-103 -348,-286 -457,-433 -267,-359 -407,-837 -370,-1269 34,-398 161,-721 407,-1036 88,-113 284,-299 390,-371 146,-99 156,-99 23,0 -745,552 -921,1606 -397,2383 83,122 244,303 270,303 8,0 -18,-33 -56,-72 -131,-136 -131,-142 0,-12 72,71 173,159 225,197 113,80 339,195 465,236 114,37 215,61 215,50 0,-5 -12,-11 -27,-15 -397,-88 -750,-310 -994,-624 -67,-85 -133,-187 -163,-251 -20,-41 -12,-31 62,88 195,314 503,566 852,696 113,42 150,52 150,41 0,-5 -40,-22 -88,-37 -279,-89 -577,-292 -765,-522 -22,-27 1,-6 52,48 171,179 364,317 566,404 92,40 115,47 115,34 0,-6 -6,-11 -12,-11 -21,0 -199,-83 -269,-125 -289,-174 -508,-411 -659,-712 -47,-94 -121,-294 -119,-324 0,-8 13,27 30,76 38,118 143,330 211,427 149,214 334,382 573,516 90,51 327,137 450,163 33,7 63,17 66,21 13,19 145,31 334,32 220,0 305,-12 497,-74 139,-45 357,-158 473,-244 55,-42 105,-75 111,-76 19,0 204,-201 265,-286 168,-234 274,-506 309,-787 18,-139 8,-423 -19,-547 -23,-107 -22,-133 2,-37 61,240 62,511 5,777 -84,391 -311,751 -628,995 -78,60 -251,165 -314,191 -25,11 -46,22 -46,27 0,4 2,7 4,7 15,0 112,-49 190,-94 286,-169 537,-441 681,-740 48,-99 70,-162 135,-371 28,-91 42,-206 44,-357 1,-99 4,-138 13,-138 13,0 12,-11 -13,-162 -15,-93 -50,-221 -83,-309 -11,-29 -19,-55 -17,-57 6,-6 62,145 90,243 77,270 86,587 26,867 -61,281 -208,576 -396,792 -38,43 -74,87 -80,98 -21,36 -88,98 -181,170 -51,39 -93,75 -93,81 0,6 5,6 13,0 6,-5 41,-32 77,-59 36,-27 102,-82 148,-122 45,-40 82,-71 82,-68 0,3 -44,44 -97,91 -252,225 -548,376 -862,439 -61,12 -108,25 -104,29 9,9 0,10 131,-19 z m -1003,-49 c -125,-44 -275,-118 -385,-190 -46,-30 -86,-53 -88,-50 -7,7 -10,4 90,69 142,92 390,203 458,205 14,1 -20,-15 -75,-34 z m -295,-19 c 0,-3 -4,-8 -10,-11 -5,-3 -10,-1 -10,4 0,6 5,11 10,11 6,0 10,-2 10,-4 z m 1980,-6 c 0,-5 -2,-10 -4,-10 -3,0 -8,5 -11,10 -3,6 -1,10 4,10 6,0 11,-4 11,-10 z m -909,-30 c 128,-13 305,-52 418,-92 115,-40 251,-104 251,-117 0,-6 -28,3 -62,20 -247,125 -537,186 -828,176 -200,-8 -331,-32 -554,-104 -13,-4 -17,-2 -12,5 9,15 144,56 266,82 177,37 347,47 521,30 z m 1183,-92 c 116,-95 306,-344 404,-528 51,-96 112,-238 112,-261 0,-23 -16,4 -40,66 -91,235 -248,473 -436,663 -94,94 -109,117 -40,60 z M 8154,8747 c -106,-108 -211,-242 -283,-362 -146,-242 -248,-558 -270,-840 -9,-119 -21,-150 -21,-55 0,83 25,251 56,375 86,341 283,679 537,923 105,100 91,72 -19,-41 z m 2873,26 c 266,-304 432,-663 488,-1058 16,-108 21,-455 7,-455 -5,0 -9,80 -9,178 -1,198 -17,332 -64,511 -74,289 -225,574 -423,804 -42,48 -72,87 -67,87 5,0 36,-30 68,-67 z m -2957,23 c 0,-3 -4,-8 -10,-11 -5,-3 -10,-1 -10,4 0,6 5,11 10,11 6,0 10,-2 10,-4 z m -79,-95 c -22,-26 -67,-87 -99,-134 -33,-48 -62,-84 -65,-80 -12,11 175,263 194,263 6,0 -7,-22 -30,-49 z m -221,-72 c -7,-11 -14,-19 -16,-16 -7,7 7,37 17,37 6,0 5,-9 -1,-21 z m 3655,11 c 3,-5 1,-10 -4,-10 -6,0 -11,5 -11,10 0,6 2,10 4,10 3,0 8,-4 11,-10 z M 7676,8458 c -193,-387 -261,-804 -200,-1240 4,-29 3,-48 -3,-48 -16,0 -33,180 -33,359 0,263 39,485 126,718 39,106 161,353 173,353 5,0 -24,-64 -63,-142 z m 4038,-67 c 81,-257 117,-560 97,-820 -10,-125 -15,-151 -25,-140 -3,2 1,69 7,148 22,280 -13,540 -120,904 -3,9 -3,17 0,17 4,0 22,-49 41,-109 z m 170,-78 c 36,-215 56,-433 39,-433 -6,0 -13,47 -16,108 -6,98 -29,283 -43,339 -4,13 -2,23 4,23 5,0 12,-17 16,-37 z M 7195,8178 c -14,-62 -25,-206 -25,-320 0,-79 -4,-128 -10,-128 -19,0 -8,307 16,438 4,17 10,32 15,32 5,0 7,-10 4,-22 z m 4901,-243 c -8,-170 -26,-327 -38,-340 -7,-7 -8,6 -4,40 17,135 26,262 27,385 1,113 3,128 11,90 5,-25 7,-103 4,-175 z M 6883,7823 c 6,-73 -7,-86 -17,-17 -9,66 -8,100 3,89 5,-6 11,-38 14,-72 z m 5444,45 c -3,-18 -9,-54 -13,-80 -3,-27 -11,-48 -16,-48 -6,0 -8,10 -4,23 3,13 8,49 12,80 4,31 11,57 16,57 6,0 8,-14 5,-32 z m 121,-101 c 4,-31 -16,-107 -27,-107 -5,0 -3,24 5,53 7,28 13,59 13,67 0,8 -18,-51 -39,-131 -44,-164 -128,-402 -140,-394 -4,2 12,56 36,119 36,98 97,300 119,399 7,34 29,31 33,-6 z M 6646,7518 c 30,-90 93,-244 144,-351 43,-91 31,-98 -14,-9 -70,139 -184,442 -166,442 4,0 21,-37 36,-82 z m 6054,-75 c 0,-8 -86,-174 -123,-238 -64,-111 -178,-285 -188,-285 -5,0 -40,-42 -78,-92 -86,-116 -259,-318 -272,-318 -16,0 -10,16 17,41 48,44 218,252 293,357 96,135 196,301 262,434 39,79 57,106 71,105 10,-1 18,-3 18,-4 z m 43,-265 c -32,-50 -64,-93 -71,-96 -7,-2 18,43 55,100 37,57 70,100 71,96 2,-5 -22,-50 -55,-100 z m 74,-50 c -64,-93 -192,-252 -206,-256 -7,-2 24,42 68,98 45,56 100,128 123,161 23,32 44,56 47,54 2,-3 -12,-29 -32,-57 z M 6292,6903 c 24,-27 72,-78 107,-115 35,-38 59,-68 53,-68 -10,0 -189,188 -205,216 -15,27 3,14 45,-33 z m 6653,27 c -10,-11 -23,-20 -28,-20 -6,0 -2,9 8,20 10,11 23,20 28,20 6,0 2,-9 -8,-20 z m -20,-205 c -44,-41 -84,-75 -90,-75 -13,1 147,149 160,149 6,0 -26,-34 -70,-74 z M 6400,6548 c 20,-16 28,-28 20,-28 -17,0 -261,208 -268,229 -2,7 45,-29 104,-81 60,-51 125,-105 144,-120 z m -170,90 c 156,-127 491,-367 597,-427 10,-5 15,-13 11,-16 -15,-15 -328,200 -532,364 -160,129 -173,140 -161,141 6,0 44,-28 85,-62 z m -120,-136 c -11,-4 -60,28 -60,39 0,5 16,-1 35,-13 19,-13 30,-24 25,-26 z m 7040,44 c 0,-2 -18,-15 -40,-30 -22,-14 -40,-22 -40,-17 0,5 15,18 33,30 30,19 47,26 47,17 z m 0,-131 c 0,-19 -606,-332 -746,-385 -48,-19 -23,10 29,32 131,56 406,192 547,271 148,82 170,93 170,82 z M 6265,6141 c 88,-39 171,-76 185,-82 14,-7 20,-13 14,-16 -19,-6 -464,193 -464,208 0,5 24,-2 53,-15 28,-13 124,-56 212,-95 z m 6930,20 c -17,-16 -296,-122 -313,-119 -8,2 54,31 139,64 150,60 193,74 174,55 z m 105,-461 c 0,-5 -8,-10 -17,-10 -10,0 -117,-14 -238,-30 -238,-32 -255,-34 -255,-22 0,4 107,21 238,38 283,37 272,36 272,24 z m -45,-250 c -76,-12 -535,-12 -535,0 0,6 103,10 293,9 180,-1 273,-5 242,-9 z m -465,-155 c 400,-38 484,-47 500,-56 23,-13 1,-11 -270,15 -135,14 -309,30 -387,37 -79,7 -143,16 -143,21 0,11 2,11 300,-17 z m 509,-21 c 9,-9 -7,-11 -76,-6 -40,2 -73,9 -73,14 0,10 139,2 149,-8 z m -4,-224 c 3,-5 1,-10 -4,-10 -6,0 -11,5 -11,10 0,6 2,10 4,10 3,0 8,-4 11,-10 z m -356,-175 c 234,-80 317,-112 309,-120 -3,-3 -65,17 -139,43 -74,27 -198,70 -276,96 -79,26 -143,50 -143,52 0,11 45,-2 249,-71 z M 7431,4584 c -344,-322 -623,-764 -786,-1248 -47,-139 -63,-134 -19,6 106,337 315,713 562,1012 99,119 325,343 330,327 2,-7 -37,-51 -87,-97 z m 5769,-36 c 0,-4 -38,11 -85,34 -47,23 -85,46 -85,50 0,4 38,-11 85,-34 47,-23 85,-46 85,-50 z M 6090,4350 c -33,-26 -52,-25 -21,0 13,11 28,20 35,20 6,0 0,-9 -14,-20 z m 6581,-217 c 162,-164 279,-296 279,-315 0,-7 -15,5 -32,27 -87,107 -266,293 -400,415 -53,49 -94,91 -91,94 9,9 88,-63 244,-221 z m 274,57 c 58,-50 105,-95 105,-101 0,-5 -33,19 -72,53 -40,35 -90,77 -110,93 -34,27 -47,45 -33,45 2,0 52,-41 110,-90 z M 6195,4090 c -21,-22 -41,-37 -44,-35 -2,3 13,23 34,45 21,22 41,37 44,35 2,-3 -13,-23 -34,-45 z m 915,34 c 0,-4 -17,-34 -39,-68 -151,-240 -288,-571 -353,-853 -12,-57 -26,-103 -30,-103 -12,0 -10,10 26,152 71,273 173,524 307,753 63,109 89,143 89,119 z m -360,-50 c 0,-3 -33,-51 -74,-107 -91,-126 -133,-191 -213,-332 -35,-60 -63,-104 -63,-96 0,31 138,263 259,433 67,95 91,122 91,102 z m 5977,-171 c 98,-126 173,-231 173,-244 0,-6 -47,51 -105,128 -57,76 -117,153 -131,171 -15,17 -22,32 -16,32 6,0 41,-39 79,-87 z m -264,-151 c 57,-98 197,-377 197,-391 0,-31 -20,0 -63,97 -26,59 -79,163 -118,232 -78,137 -88,157 -72,147 6,-4 31,-42 56,-85 z M 7766,3637 c 1,-204 23,-342 84,-527 130,-397 395,-737 740,-950 69,-42 64,-39 57,-46 -3,-3 -45,20 -94,51 -393,257 -665,649 -767,1106 -39,175 -58,418 -40,508 13,65 19,25 20,-142 z m 4287,-15 c 88,-266 124,-459 134,-717 3,-88 3,-158 0,-155 -3,3 -10,80 -16,172 -18,269 -74,544 -156,760 -35,95 -42,124 -26,114 5,-4 34,-81 64,-174 z m -5674,79 c -18,-28 -36,-51 -42,-51 -5,0 -1,12 9,28 9,15 27,41 38,59 34,53 29,20 -5,-36 z m 1138,47 c -36,-148 -42,-475 -12,-668 11,-69 21,-117 23,-107 7,35 19,15 36,-60 38,-159 116,-356 203,-513 20,-35 38,-59 41,-52 2,7 26,-20 54,-60 59,-87 108,-149 157,-200 19,-21 30,-38 24,-38 -14,0 -71,64 -144,163 -67,89 -83,109 -54,62 28,-46 130,-179 149,-194 21,-17 20,-28 -1,-28 -21,0 -43,15 -43,30 0,5 10,2 23,-9 21,-18 21,-18 -2,8 -13,16 -31,25 -42,23 -36,-7 -198,242 -286,440 -77,172 -129,352 -159,550 -32,215 -13,675 28,675 6,0 8,-10 5,-22 z m 5333,-130 c 0,-7 -16,11 -35,39 -19,29 -35,58 -35,65 0,7 16,-11 35,-39 19,-29 35,-58 35,-65 z m -5769,0 c -59,-173 -100,-416 -108,-645 -6,-181 -23,-240 -23,-80 0,186 29,403 80,608 34,135 46,169 59,169 6,0 2,-24 -8,-52 z m 5267,-135 c 43,-115 122,-385 122,-421 0,-5 -7,-13 -16,-16 -13,-5 -15,-2 -11,16 9,34 -42,227 -111,416 -17,45 -27,82 -22,82 4,0 22,-35 38,-77 z m -324,-110 c 29,-165 39,-278 40,-458 1,-193 -9,-315 -26,-315 -6,0 -7,8 -4,17 4,9 9,96 13,192 7,214 -9,400 -53,619 -4,19 -2,32 4,32 5,0 17,-39 26,-87 z m -4444,5 c 1,-300 128,-692 317,-978 91,-137 154,-214 276,-332 55,-54 94,-98 88,-98 -6,0 -60,48 -119,108 -309,306 -506,701 -566,1131 -18,127 -21,241 -6,241 6,0 10,-31 10,-72 z m -779,-64 c -17,-66 -36,-152 -43,-191 -7,-40 -16,-73 -20,-73 -4,0 -8,4 -8,9 0,31 75,355 87,374 16,26 10,-13 -16,-119 z m 5469,-11 c 13,-46 55,-278 64,-350 4,-29 3,-53 -1,-53 -5,0 -16,53 -26,118 -9,64 -27,163 -40,220 -13,56 -20,102 -16,102 5,0 13,-17 19,-37 z M 6900,2965 c 0,-37 -4,-65 -10,-65 -11,0 -13,51 -4,99 10,48 14,37 14,-34 z m 5259,-152 c -2,-70 -6,-63 -11,20 -2,26 0,47 4,47 5,0 7,-30 7,-67 z m -409,21 c 0,-71 -94,-392 -155,-530 -36,-82 -41,-61 -5,25 49,120 99,285 123,406 12,63 25,115 30,115 4,0 7,-7 7,-16 z M 7110,2705 c 3,-30 3,-55 -1,-55 -7,0 -19,60 -19,99 0,43 14,12 20,-44 z m 5037,3 c -3,-7 -5,-2 -5,12 0,14 2,19 5,13 2,-7 2,-19 0,-25 z m -4303,-75 c 156,-315 447,-610 781,-790 44,-23 71,-43 60,-43 -11,0 -33,9 -50,21 -16,11 -40,24 -52,29 -12,5 -59,33 -105,63 -269,174 -517,448 -658,726 -32,65 -34,71 -22,71 4,0 25,-34 46,-77 z m 3335,-121 c -149,-248 -385,-485 -637,-641 -98,-61 -217,-121 -238,-121 -9,0 31,24 90,54 264,134 495,331 674,574 34,45 74,105 89,132 15,27 31,46 35,43 5,-2 -1,-21 -13,-41 z m -509,-111 c 0,-10 -150,-124 -226,-173 -144,-92 -394,-191 -582,-229 -199,-41 -672,-33 -672,11 0,4 17,4 37,-1 21,-4 97,-13 169,-19 295,-26 621,37 894,174 112,56 259,151 325,209 41,37 55,44 55,28 z m 330,1 c 0,-15 -189,-209 -268,-275 -226,-189 -524,-335 -806,-396 -109,-24 -150,-27 -126,-10 11,8 2,9 -35,5 -145,-16 -215,-19 -215,-7 0,7 20,11 53,11 29,0 91,5 137,10 367,46 695,187 977,423 51,43 98,76 104,75 6,-2 46,36 88,84 72,82 91,99 91,80 z m 697,-94 c -3,-8 -6,-5 -6,6 -1,11 2,17 5,13 3,-3 4,-12 1,-19 z m -4117,2 c 0,-5 -2,-10 -4,-10 -3,0 -8,5 -11,10 -3,6 -1,10 4,10 6,0 11,-4 11,-10 z m 737,-303 c 43,-34 108,-82 146,-106 37,-24 65,-46 63,-48 -10,-10 -178,105 -256,175 -69,63 -40,50 47,-21 z m -242,14 c 16,-19 16,-20 -2,-18 -11,0 -20,9 -20,19 -2,23 0,22 22,-1 z m 479,-55 c 100,-63 263,-139 386,-181 69,-24 91,-34 63,-30 -22,3 -83,21 -134,40 -169,65 -444,215 -393,215 4,0 38,-20 78,-44 z m 1911,-63 c -72,-57 -417,-190 -518,-198 l -52,-5 60,15 c 121,30 304,98 406,150 106,54 139,67 104,38 z M 9156,1730 c 54,-10 113,-21 129,-23 20,-3 14,-5 -18,-6 -53,-1 -197,25 -211,40 -13,12 -14,12 100,-11 z"
       id="path1"
       style="fill:#000000;fill-opacity:1" />
    <path
       d="m 9385,8769 c -274,-23 -551,-120 -774,-270 -52,-35 -111,-75 -130,-88 -62,-41 -233,-223 -304,-321 -128,-179 -238,-435 -282,-655 -52,-260 -28,-602 62,-859 31,-90 127,-296 137,-296 3,0 -13,38 -34,83 -174,371 -202,813 -75,1196 47,141 139,324 222,440 70,98 258,299 270,288 3,-4 -41,-55 -99,-115 -321,-333 -485,-785 -448,-1234 6,-68 15,-139 20,-158 l 10,-35 -5,40 c -3,22 -8,96 -12,165 -37,762 497,1455 1246,1620 580,128 1210,-94 1565,-551 230,-296 337,-579 355,-939 8,-145 8,-145 9,-40 3,177 -32,379 -94,552 -129,358 -417,688 -754,864 -41,21 -77,40 -79,42 -2,1 -2,5 1,8 9,8 143,-62 233,-122 121,-80 240,-188 337,-303 377,-451 480,-1073 268,-1618 -16,-42 -28,-79 -26,-81 5,-5 81,190 102,263 9,33 23,64 30,70 31,24 70,341 59,480 -34,421 -196,791 -469,1073 -118,122 -226,208 -356,286 -81,48 -240,122 -283,130 -12,3 -74,18 -138,35 -188,48 -383,66 -564,50 z m 385,-27 c 81,-13 25,-22 -66,-11 -197,25 -472,-3 -676,-67 -284,-90 -565,-277 -749,-496 -26,-32 -50,-54 -53,-49 -8,12 109,142 201,223 249,220 573,364 920,408 72,9 348,4 423,-8 z"
       id="path2"
       style="fill:#000000;fill-opacity:1" />
    <path
       d="m 11260,8683 c 0,-6 8,-17 18,-24 16,-13 16,-13 2,6 -8,11 -16,22 -17,24 -2,2 -3,0 -3,-6 z"
       id="path3"
       style="fill:#000000;fill-opacity:1" />
    <path
       d="m 9260,8560 c -301,-54 -586,-200 -808,-414 -239,-230 -378,-476 -453,-801 -26,-115 -37,-400 -20,-528 27,-201 98,-406 203,-587 78,-134 129,-201 247,-325 162,-169 270,-240 430,-280 57,-14 105,-24 108,-21 5,4 -82,71 -134,103 -17,10 -31,21 -32,25 -1,4 -33,47 -71,95 -86,107 -161,255 -197,388 -37,139 -39,349 -5,505 41,187 138,357 283,495 398,380 1008,387 1421,16 105,-95 208,-250 269,-404 11,-28 24,-54 29,-57 18,-11 40,-164 40,-278 0,-248 -66,-447 -218,-652 l -62,-85 50,55 c 311,338 377,821 171,1245 -149,305 -428,518 -771,591 -112,23 -315,23 -425,-1 -639,-136 -1019,-752 -851,-1381 22,-80 25,-106 12,-93 -15,15 -58,197 -68,289 -36,326 101,689 348,920 38,36 93,81 122,100 28,19 52,42 52,51 0,19 132,86 241,123 273,92 607,68 864,-61 344,-173 583,-515 624,-893 7,-62 9,-67 10,-28 3,115 -61,342 -135,477 -173,317 -512,551 -856,589 -34,4 -63,12 -65,19 -5,13 22,11 152,-14 144,-28 288,-89 420,-178 60,-40 115,-64 115,-49 0,11 -163,123 -225,156 -89,46 -216,91 -325,114 -114,24 -324,24 -443,1 -343,-68 -646,-289 -807,-589 -23,-43 -46,-78 -51,-78 -5,0 -9,2 -9,5 0,15 59,119 106,188 30,43 52,83 49,87 -8,13 129,148 205,204 142,105 303,179 472,218 116,27 382,30 488,5 43,-10 69,-12 77,-5 17,14 126,-23 247,-85 339,-173 579,-498 647,-877 17,-94 17,-324 0,-410 -19,-95 -69,-245 -107,-322 -19,-38 -32,-68 -29,-68 12,0 85,163 113,250 44,140 57,228 56,395 0,276 -77,512 -238,730 -227,307 -567,487 -951,502 -245,9 -487,-50 -676,-167 -47,-29 -81,-27 -36,3 97,63 276,133 420,164 104,22 369,25 472,4 247,-49 481,-171 655,-341 45,-44 84,-80 86,-80 28,0 -75,113 -175,193 -35,28 -59,53 -52,55 17,6 132,-89 207,-171 253,-277 371,-641 331,-1029 -5,-50 -4,-78 2,-78 38,0 54,336 25,511 -45,271 -173,518 -369,715 -150,151 -306,249 -503,318 -223,77 -474,95 -701,50 -18,-4 -31,-2 -31,4 0,18 163,37 315,36 157,-1 272,-19 406,-64 167,-56 356,-167 492,-290 37,-35 67,-55 67,-47 0,29 -240,233 -283,241 -6,1 -55,23 -107,49 -107,52 -207,86 -331,113 -118,26 -409,26 -527,1 -424,-93 -757,-352 -943,-732 -90,-186 -139,-385 -139,-572 0,-56 -4,-83 -11,-83 -18,0 -4,247 20,350 124,542 532,943 1074,1054 118,25 345,37 436,25 42,-6 101,-12 131,-14 164,-8 457,-160 640,-332 202,-189 333,-414 402,-688 37,-149 40,-170 40,-310 1,-268 -59,-489 -194,-712 -31,-51 -55,-93 -52,-93 9,0 86,124 126,205 58,114 100,234 130,366 31,139 33,426 4,559 -44,204 -128,401 -233,547 -79,111 -322,338 -372,348 -10,2 -37,15 -58,28 -121,76 -285,141 -454,179 -148,33 -416,32 -569,-1 -110,-23 -258,-75 -350,-121 -241,-122 -474,-349 -601,-586 -26,-48 -50,-81 -54,-75 -12,20 85,181 179,300 28,35 50,67 49,72 -4,12 139,140 226,203 158,113 356,199 561,243 66,14 129,18 280,18 219,0 292,-12 465,-72 55,-19 114,-38 132,-43 95,-24 302,-171 437,-310 344,-356 479,-845 371,-1340 l -6,-25 11,25 c 6,14 20,76 31,138 35,205 22,448 -34,640 -17,57 -20,82 -12,82 15,0 50,-126 71,-260 12,-77 15,-148 12,-275 -4,-176 5,-168 17,15 25,383 -126,801 -394,1092 -39,42 -71,79 -71,82 0,20 28,-4 96,-81 89,-102 159,-203 220,-317 24,-45 44,-76 44,-71 0,6 -23,52 -50,104 -148,278 -389,511 -674,650 -509,249 -1112,199 -1563,-131 -29,-21 -54,-34 -58,-29 -7,12 156,121 254,171 83,41 245,103 300,115 19,4 40,13 47,20 24,24 174,40 364,39 152,0 204,-4 290,-23 404,-86 736,-306 977,-646 172,-244 252,-491 273,-840 l 8,-140 -3,180 c -4,204 -22,306 -81,476 -81,233 -192,409 -373,589 -186,185 -376,304 -614,385 -154,52 -247,66 -462,71 -156,3 -209,0 -295,-16 z m 240,-140 c 0,-5 -19,-10 -41,-10 -23,0 -88,-7 -146,-16 -546,-81 -998,-455 -1182,-977 -93,-265 -106,-596 -32,-860 10,-37 14,-70 10,-73 -12,-7 -25,30 -51,149 -30,138 -32,435 -5,572 112,551 488,980 1010,1150 160,52 437,93 437,65 z m 310,-60 c 301,-61 541,-190 760,-410 104,-104 220,-251 220,-279 0,-19 -16,-12 -27,12 -21,45 -132,184 -207,259 -102,102 -226,194 -346,257 -121,63 -230,105 -242,93 -5,-5 -49,1 -106,15 -355,86 -741,30 -1057,-154 -338,-195 -596,-539 -681,-905 -17,-73 -34,-102 -34,-59 0,31 48,188 86,280 104,251 303,494 530,643 51,35 94,69 94,75 0,29 254,133 411,167 184,41 415,43 599,6 z"
       id="path4"
       style="fill:#000000;fill-opacity:1" />
    <path
       d="m 9418,8363 c 6,-2 18,-2 25,0 6,3 1,5 -13,5 -14,0 -19,-2 -12,-5 z"
       id="path5"
       style="fill:#000000;fill-opacity:1" />
    <path
       d="m 9608,8363 c 6,-2 18,-2 25,0 6,3 1,5 -13,5 -14,0 -19,-2 -12,-5 z"
       id="path6"
       style="fill:#000000;fill-opacity:1" />
    <path
       d="m 7730,8490 c -11,-22 -18,-40 -15,-40 2,0 14,18 25,40 11,22 18,40 15,40 -2,0 -14,-18 -25,-40 z"
       id="path7"
       style="fill:#000000;fill-opacity:1" />
    <path
       d="m 10895,8460 c 10,-11 20,-20 23,-20 3,0 -3,9 -13,20 -10,11 -20,20 -23,20 -3,0 3,-9 13,-20 z"
       id="path8"
       style="fill:#000000;fill-opacity:1" />
    <path
       d="m 8139,8243 c -13,-16 -12,-17 4,-4 9,7 17,15 17,17 0,8 -8,3 -21,-13 z"
       id="path9"
       style="fill:#000000;fill-opacity:1" />
    <path
       d="m 8159,8183 c -13,-16 -12,-17 4,-4 9,7 17,15 17,17 0,8 -8,3 -21,-13 z"
       id="path10"
       style="fill:#000000;fill-opacity:1" />
    <path
       d="m 11972,8105 c 0,-16 2,-22 5,-12 2,9 2,23 0,30 -3,6 -5,-1 -5,-18 z"
       id="path11"
       style="fill:#000000;fill-opacity:1" />
    <path
       d="m 6812,7790 c 0,-14 2,-19 5,-12 2,6 2,18 0,25 -3,6 -5,1 -5,-13 z"
       id="path12"
       style="fill:#000000;fill-opacity:1" />
    <path
       d="m 7864,7704 c -56,-184 -68,-273 -68,-504 -1,-186 2,-230 22,-328 29,-143 80,-298 135,-416 45,-94 150,-271 168,-281 5,-4 -7,19 -27,51 -55,85 -138,266 -174,375 -49,153 -70,270 -77,432 -3,81 -10,147 -14,147 -12,0 -11,100 2,185 6,39 12,102 14,140 2,46 14,106 37,176 26,79 31,106 21,106 -8,0 -23,-32 -39,-83 z"
       id="path13"
       style="fill:#000000;fill-opacity:1" />
    <path
       d="m 6762,7740 c 0,-14 2,-19 5,-12 2,6 2,18 0,25 -3,6 -5,1 -5,-13 z"
       id="path14"
       style="fill:#000000;fill-opacity:1" />
    <path
       d="m 6821,7724 c 0,-11 3,-14 6,-6 3,7 2,16 -1,19 -3,4 -6,-2 -5,-13 z"
       id="path15"
       style="fill:#000000;fill-opacity:1" />
    <path
       d="m 6772,7690 c 0,-14 2,-19 5,-12 2,6 2,18 0,25 -3,6 -5,1 -5,-13 z"
       id="path16"
       style="fill:#000000;fill-opacity:1" />
    <path
       d="m 6781,7644 c 0,-11 3,-14 6,-6 3,7 2,16 -1,19 -3,4 -6,-2 -5,-13 z"
       id="path17"
       style="fill:#000000;fill-opacity:1" />
    <path
       d="m 10921,7565 c 0,-5 9,-28 20,-50 10,-22 16,-29 13,-15 -7,28 -33,80 -33,65 z"
       id="path18"
       style="fill:#000000;fill-opacity:1" />
    <path
       d="m 7881,7534 c 0,-11 3,-14 6,-6 3,7 2,16 -1,19 -3,4 -6,-2 -5,-13 z"
       id="path19"
       style="fill:#000000;fill-opacity:1" />
    <path
       d="m 7871,7494 c 0,-11 3,-14 6,-6 3,7 2,16 -1,19 -3,4 -6,-2 -5,-13 z"
       id="path20"
       style="fill:#000000;fill-opacity:1" />
    <path
       d="m 6891,7429 c 41,-149 193,-519 213,-519 4,0 -8,28 -25,62 -64,126 -136,323 -179,486 -6,23 -15,42 -20,42 -5,0 0,-32 11,-71 z"
       id="path21"
       style="fill:#000000;fill-opacity:1" />
    <path
       d="m 7861,7444 c 0,-11 3,-14 6,-6 3,7 2,16 -1,19 -3,4 -6,-2 -5,-13 z"
       id="path22"
       style="fill:#000000;fill-opacity:1" />
    <path
       d="m 9375,7446 c -396,-62 -708,-348 -818,-751 -18,-68 -21,-105 -21,-250 0,-156 3,-177 28,-260 52,-170 143,-322 258,-431 49,-46 73,-59 288,-144 243,-97 266,-102 368,-87 34,5 52,4 52,-3 0,-5 -14,-10 -32,-10 -17,0 -28,-3 -24,-7 12,-12 239,-21 259,-11 11,5 29,33 42,61 13,29 42,74 65,101 22,27 39,54 37,60 -2,6 -16,12 -32,14 -27,4 -273,-24 -307,-34 -10,-3 -18,-1 -18,4 0,19 295,55 340,42 28,-8 30,-7 36,27 10,52 -4,141 -30,200 -49,105 -146,181 -260,202 -75,14 -87,25 -21,19 102,-9 226,-90 280,-183 13,-22 31,-65 40,-95 l 15,-55 -5,45 c -8,66 -57,163 -107,213 -24,24 -71,57 -104,73 -54,26 -68,29 -164,29 -126,0 -172,-17 -254,-95 -79,-75 -111,-150 -111,-262 0,-49 -3,-88 -7,-88 -3,0 -9,26 -12,58 -8,66 12,155 49,217 34,59 117,132 183,163 49,23 70,27 152,27 82,0 103,-4 152,-27 32,-15 74,-39 93,-54 46,-34 102,-112 126,-172 10,-26 18,-42 19,-35 1,40 -47,130 -101,187 -80,86 -151,118 -274,124 -99,4 -166,-14 -240,-64 -52,-35 -56,-22 -4,15 54,40 155,71 229,71 198,0 374,-152 411,-355 18,-100 -8,-219 -70,-310 -26,-39 -28,-44 -9,-31 37,26 106,135 130,205 18,53 23,86 22,166 -2,151 -48,260 -152,357 -80,75 -153,109 -297,137 l -50,10 65,-3 c 42,-2 88,-13 130,-30 36,-15 71,-28 79,-28 15,-1 147,-128 175,-168 14,-21 14,-20 -1,9 -90,167 -317,273 -518,241 -70,-11 -195,-61 -216,-86 -6,-8 -16,-11 -21,-8 -14,9 74,63 142,87 78,29 229,35 306,12 188,-55 322,-188 378,-374 25,-86 21,-217 -9,-308 -28,-83 -101,-200 -149,-239 l -31,-25 32,15 c 17,9 60,42 94,73 272,252 292,683 43,951 -116,127 -248,192 -427,215 -56,7 -97,16 -91,20 17,10 164,-10 233,-32 101,-31 190,-88 276,-175 87,-88 134,-165 171,-281 13,-38 23,-62 24,-52 0,31 -50,169 -82,225 -60,106 -168,208 -281,267 -31,17 -57,33 -57,38 0,9 92,-37 146,-74 57,-39 122,-104 173,-172 78,-107 119,-226 132,-382 l 7,-100 -3,125 c -3,135 -20,208 -73,307 -94,181 -241,302 -442,365 -62,19 -97,23 -200,23 -103,0 -138,-4 -200,-23 -214,-67 -362,-195 -455,-394 -34,-74 -65,-197 -65,-263 0,-19 -5,-35 -11,-35 -13,0 -6,79 17,180 32,141 143,313 259,401 30,23 55,45 55,49 0,10 146,76 215,96 82,25 275,25 365,1 90,-24 213,-86 285,-144 107,-87 203,-229 246,-363 10,-30 18,-48 18,-39 1,8 -10,49 -24,89 -137,402 -599,608 -993,442 -182,-76 -342,-237 -404,-404 -11,-32 -24,-58 -29,-58 -10,0 11,61 41,121 96,188 261,325 470,391 63,19 96,23 210,23 114,0 147,-4 210,-23 268,-84 464,-291 531,-561 18,-71 20,-105 17,-210 -5,-124 -16,-174 -62,-286 -13,-32 -14,-36 -2,-21 23,28 74,177 87,252 16,91 6,260 -21,352 -24,84 -70,181 -111,233 -19,24 -25,39 -18,46 15,15 -104,132 -188,187 -145,93 -267,129 -443,130 -101,0 -140,-4 -205,-22 -161,-46 -314,-142 -403,-253 -26,-32 -50,-58 -54,-58 -18,-2 -5,21 41,77 94,112 247,208 406,254 113,32 315,32 428,0 302,-86 524,-323 593,-632 6,-30 12,-46 13,-34 2,40 -39,175 -74,246 -107,213 -301,374 -532,440 -112,32 -314,32 -428,0 -286,-82 -510,-306 -587,-589 -28,-104 -30,-296 -4,-398 21,-82 80,-214 125,-279 18,-25 28,-46 22,-46 -15,0 -98,139 -126,209 -45,116 -58,201 -53,345 5,105 11,148 33,216 98,308 353,530 668,580 102,17 270,8 365,-20 295,-84 520,-322 593,-626 18,-75 21,-111 17,-229 -5,-164 10,-140 19,30 21,407 -250,771 -652,876 -110,29 -312,31 -408,5 -64,-17 -98,-15 -68,3 35,22 146,36 281,36 165,0 246,-18 373,-81 307,-154 488,-440 491,-774 1,-63 -2,-140 -6,-170 -5,-41 -5,-47 3,-25 5,17 14,69 19,117 40,345 -151,707 -461,873 -68,36 -65,59 3,24 116,-58 253,-183 333,-304 185,-280 193,-675 20,-970 -20,-33 -26,-49 -15,-36 69,81 144,266 166,415 55,359 -112,730 -418,930 -93,60 -170,95 -285,128 -66,19 -102,23 -233,23 -131,0 -168,-4 -239,-23 -157,-43 -291,-117 -410,-227 -32,-31 -62,-52 -65,-47 -8,13 95,109 169,159 180,121 360,170 592,160 154,-6 261,-34 397,-104 258,-134 443,-376 500,-656 16,-78 22,-253 12,-345 -5,-44 -5,-44 4,-12 6,19 13,78 16,131 21,309 -135,651 -384,840 -84,64 -243,142 -347,171 -67,18 -107,22 -245,22 -107,0 -180,-4 -209,-12 -40,-13 -63,-10 -48,5 13,12 143,32 215,33 41,0 72,4 72,10 0,13 -85,11 -185,-4 z"
       id="path23"
       style="fill:#000000;fill-opacity:1" />
    <path
       d="m 6610,7445 c 0,-5 5,-17 10,-25 5,-8 10,-10 10,-5 0,6 -5,17 -10,25 -5,8 -10,11 -10,5 z"
       id="path24"
       style="fill:#000000;fill-opacity:1" />
    <path
       d="m 6630,7395 c 0,-5 5,-17 10,-25 5,-8 10,-10 10,-5 0,6 -5,17 -10,25 -5,8 -10,11 -10,5 z"
       id="path25"
       style="fill:#000000;fill-opacity:1" />
    <path
       d="m 7851,7384 c 0,-11 3,-14 6,-6 3,7 2,16 -1,19 -3,4 -6,-2 -5,-13 z"
       id="path26"
       style="fill:#000000;fill-opacity:1" />
    <path
       d="m 6990,7225 c 0,-5 5,-17 10,-25 5,-8 10,-10 10,-5 0,6 -5,17 -10,25 -5,8 -10,11 -10,5 z"
       id="path27"
       style="fill:#000000;fill-opacity:1" />
    <path
       d="m 6940,7205 c 0,-5 5,-17 10,-25 5,-8 10,-10 10,-5 0,6 -5,17 -10,25 -5,8 -10,11 -10,5 z"
       id="path28"
       style="fill:#000000;fill-opacity:1" />
    <path
       d="m 6960,7155 c 0,-5 5,-17 10,-25 5,-8 10,-10 10,-5 0,6 -5,17 -10,25 -5,8 -10,11 -10,5 z"
       id="path29"
       style="fill:#000000;fill-opacity:1" />
    <path
       d="m 7542,7050 c 0,-14 2,-19 5,-12 2,6 2,18 0,25 -3,6 -5,1 -5,-13 z"
       id="path30"
       style="fill:#000000;fill-opacity:1" />
    <path
       d="m 11048,6998 c 5,-113 9,-125 10,-30 1,50 -1,92 -5,92 -5,0 -7,-28 -5,-62 z"
       id="path31"
       style="fill:#000000;fill-opacity:1" />
    <path
       d="m 7551,7004 c 0,-11 3,-14 6,-6 3,7 2,16 -1,19 -3,4 -6,-2 -5,-13 z"
       id="path32"
       style="fill:#000000;fill-opacity:1" />
    <path
       d="m 7561,6964 c 0,-11 3,-14 6,-6 3,7 2,16 -1,19 -3,4 -6,-2 -5,-13 z"
       id="path33"
       style="fill:#000000;fill-opacity:1" />
    <path
       d="m 7231,6935 c 0,-5 6,-21 14,-35 8,-14 14,-20 14,-15 0,6 -6,21 -14,35 -8,14 -14,21 -14,15 z"
       id="path34"
       style="fill:#000000;fill-opacity:1" />
    <path
       d="m 11073,6830 c 0,-25 2,-35 4,-22 2,12 2,32 0,45 -2,12 -4,2 -4,-23 z"
       id="path35"
       style="fill:#000000;fill-opacity:1" />
    <path
       d="m 11042,6820 c 0,-19 2,-27 5,-17 2,9 2,25 0,35 -3,9 -5,1 -5,-18 z"
       id="path36"
       style="fill:#000000;fill-opacity:1" />
    <path
       d="m 11061,6754 c 0,-11 3,-14 6,-6 3,7 2,16 -1,19 -3,4 -6,-2 -5,-13 z"
       id="path37"
       style="fill:#000000;fill-opacity:1" />
    <path
       d="m 7962,6720 c 0,-14 2,-19 5,-12 2,6 2,18 0,25 -3,6 -5,1 -5,-13 z"
       id="path38"
       style="fill:#000000;fill-opacity:1" />
    <path
       d="m 11970,6653 c -24,-32 -64,-83 -89,-113 -25,-30 -38,-49 -28,-41 27,21 170,201 165,207 -3,2 -25,-21 -48,-53 z"
       id="path39"
       style="fill:#000000;fill-opacity:1" />
    <path
       d="m 10991,6664 c 0,-11 3,-14 6,-6 3,7 2,16 -1,19 -3,4 -6,-2 -5,-13 z"
       id="path40"
       style="fill:#000000;fill-opacity:1" />
    <path
       d="m 11156,6654 c -4,-14 -5,-28 -3,-31 3,-2 8,8 11,23 4,14 5,28 3,31 -3,2 -8,-8 -11,-23 z"
       id="path41"
       style="fill:#000000;fill-opacity:1" />
    <path
       d="m 10235,6640 c 9,-16 18,-30 21,-30 2,0 -2,14 -11,30 -9,17 -18,30 -21,30 -2,0 2,-13 11,-30 z"
       id="path42"
       style="fill:#000000;fill-opacity:1" />
    <path
       d="m 10662,6490 c 0,-19 2,-27 5,-17 2,9 2,25 0,35 -3,9 -5,1 -5,-18 z"
       id="path43"
       style="fill:#000000;fill-opacity:1" />
    <path
       d="m 10921,6494 c 0,-11 3,-14 6,-6 3,7 2,16 -1,19 -3,4 -6,-2 -5,-13 z"
       id="path44"
       style="fill:#000000;fill-opacity:1" />
    <path
       d="m 11924,6478 -29,-33 33,29 c 30,28 37,36 29,36 -2,0 -16,-15 -33,-32 z"
       id="path45"
       style="fill:#000000;fill-opacity:1" />
    <path
       d="m 11136,6475 c -9,-26 -7,-32 5,-12 6,10 9,21 6,23 -2,3 -7,-2 -11,-11 z"
       id="path46"
       style="fill:#000000;fill-opacity:1" />
    <path
       d="m 10651,6404 c 0,-11 3,-14 6,-6 3,7 2,16 -1,19 -3,4 -6,-2 -5,-13 z"
       id="path47"
       style="fill:#000000;fill-opacity:1" />
    <path
       d="m 10918,6300 c -32,-63 -85,-153 -119,-200 -34,-46 -53,-78 -43,-70 46,39 233,353 223,377 -2,5 -30,-43 -61,-107 z"
       id="path48"
       style="fill:#000000;fill-opacity:1" />
    <path
       d="m 6965,6370 c 10,-11 20,-20 23,-20 3,0 -3,9 -13,20 -10,11 -20,20 -23,20 -3,0 3,-9 13,-20 z"
       id="path49"
       style="fill:#000000;fill-opacity:1" />
    <path
       d="m 10353,6285 c 0,-38 2,-53 4,-32 2,20 2,52 0,70 -2,17 -4,1 -4,-38 z"
       id="path50"
       style="fill:#000000;fill-opacity:1" />
    <path
       d="m 11529,6313 -34,-38 38,34 c 20,19 37,36 37,38 0,8 -8,0 -41,-34 z"
       id="path51"
       style="fill:#000000;fill-opacity:1" />
    <path
       d="m 10262,6320 c 0,-14 2,-19 5,-12 2,6 2,18 0,25 -3,6 -5,1 -5,-13 z"
       id="path52"
       style="fill:#000000;fill-opacity:1" />
    <path
       d="m 7235,6300 c 10,-11 20,-20 23,-20 3,0 -3,9 -13,20 -10,11 -20,20 -23,20 -3,0 3,-9 13,-20 z"
       id="path53"
       style="fill:#000000;fill-opacity:1" />
    <path
       d="m 13138,6299 c -21,-11 -38,-22 -38,-24 0,-5 79,32 89,41 12,11 -18,1 -51,-17 z"
       id="path54"
       style="fill:#000000;fill-opacity:1" />
    <path
       d="m 10273,6215 c 0,-33 2,-45 4,-27 2,18 2,45 0,60 -2,15 -4,0 -4,-33 z"
       id="path55"
       style="fill:#000000;fill-opacity:1" />
    <path
       d="m 10212,6220 c 0,-19 2,-27 5,-17 2,9 2,25 0,35 -3,9 -5,1 -5,-18 z"
       id="path56"
       style="fill:#000000;fill-opacity:1" />
    <path
       d="m 11749,6203 c -13,-16 -12,-17 4,-4 9,7 17,15 17,17 0,8 -8,3 -21,-13 z"
       id="path57"
       style="fill:#000000;fill-opacity:1" />
    <path
       d="m 10471,6194 c 0,-11 3,-14 6,-6 3,7 2,16 -1,19 -3,4 -6,-2 -5,-13 z"
       id="path58"
       style="fill:#000000;fill-opacity:1" />
    <path
       d="m 7530,6186 c 0,-2 8,-10 18,-17 15,-13 16,-12 3,4 -13,16 -21,21 -21,13 z"
       id="path59"
       style="fill:#000000;fill-opacity:1" />
    <path
       d="m 12084,6164 c -18,-14 -18,-15 4,-4 12,6 22,13 22,15 0,8 -5,6 -26,-11 z"
       id="path60"
       style="fill:#000000;fill-opacity:1" />
    <path
       d="m 10461,6154 c 0,-11 3,-14 6,-6 3,7 2,16 -1,19 -3,4 -6,-2 -5,-13 z"
       id="path61"
       style="fill:#000000;fill-opacity:1" />
    <path
       d="m 10381,6094 c 0,-11 3,-14 6,-6 3,7 2,16 -1,19 -3,4 -6,-2 -5,-13 z"
       id="path62"
       style="fill:#000000;fill-opacity:1" />
    <path
       d="m 10351,6084 c 0,-11 3,-14 6,-6 3,7 2,16 -1,19 -3,4 -6,-2 -5,-13 z"
       id="path63"
       style="fill:#000000;fill-opacity:1" />
    <path
       d="m 10231,6044 c 0,-11 3,-14 6,-6 3,7 2,16 -1,19 -3,4 -6,-2 -5,-13 z"
       id="path64"
       style="fill:#000000;fill-opacity:1" />
    <path
       d="m 11099,6003 c -13,-16 -12,-17 4,-4 9,7 17,15 17,17 0,8 -8,3 -21,-13 z"
       id="path65"
       style="fill:#000000;fill-opacity:1" />
    <path
       d="m 10639,5993 c -13,-16 -12,-17 4,-4 9,7 17,15 17,17 0,8 -8,3 -21,-13 z"
       id="path66"
       style="fill:#000000;fill-opacity:1" />
    <path
       d="m 10709,5983 -24,-28 28,24 c 25,23 32,31 24,31 -2,0 -14,-12 -28,-27 z"
       id="path67"
       style="fill:#000000;fill-opacity:1" />
    <path
       d="m 6750,5990 c 8,-5 20,-10 25,-10 6,0 3,5 -5,10 -8,5 -19,10 -25,10 -5,0 -3,-5 5,-10 z"
       id="path68"
       style="fill:#000000;fill-opacity:1" />
    <path
       d="m 12865,5930 c -13,-5 -14,-9 -5,-9 8,0 24,4 35,9 13,5 14,9 5,9 -8,0 -24,-4 -35,-9 z"
       id="path69"
       style="fill:#000000;fill-opacity:1" />
    <path
       d="m 9932,5910 c 0,-14 2,-19 5,-12 2,6 2,18 0,25 -3,6 -5,1 -5,-13 z"
       id="path70"
       style="fill:#000000;fill-opacity:1" />
    <path
       d="m 10575,5843 c -77,-73 -78,-74 -19,-29 65,50 110,93 103,100 -2,2 -40,-30 -84,-71 z"
       id="path71"
       style="fill:#000000;fill-opacity:1" />
    <path
       d="m 11134,5884 c -18,-14 -18,-15 4,-4 12,6 22,13 22,15 0,8 -5,6 -26,-11 z"
       id="path72"
       style="fill:#000000;fill-opacity:1" />
    <path
       d="m 6488,5873 c 7,-3 16,-2 19,1 4,3 -2,6 -13,5 -11,0 -14,-3 -6,-6 z"
       id="path73"
       style="fill:#000000;fill-opacity:1" />
    <path
       d="m 10190,5820 c -6,-11 -8,-20 -6,-20 3,0 10,9 16,20 6,11 8,20 6,20 -3,0 -10,-9 -16,-20 z"
       id="path74"
       style="fill:#000000;fill-opacity:1" />
    <path
       d="m 10259,5803 c -13,-16 -12,-17 4,-4 9,7 17,15 17,17 0,8 -8,3 -21,-13 z"
       id="path75"
       style="fill:#000000;fill-opacity:1" />
    <path
       d="m 6618,5793 c 7,-3 16,-2 19,1 4,3 -2,6 -13,5 -11,0 -14,-3 -6,-6 z"
       id="path76"
       style="fill:#000000;fill-opacity:1" />
    <path
       d="m 6658,5783 c 7,-3 16,-2 19,1 4,3 -2,6 -13,5 -11,0 -14,-3 -6,-6 z"
       id="path77"
       style="fill:#000000;fill-opacity:1" />
    <path
       d="m 8260,5776 c 0,-3 9,-10 20,-16 11,-6 20,-8 20,-6 0,3 -9,10 -20,16 -11,6 -20,8 -20,6 z"
       id="path78"
       style="fill:#000000;fill-opacity:1" />
    <path
       d="m 10469,5753 c -13,-16 -12,-17 4,-4 9,7 17,15 17,17 0,8 -8,3 -21,-13 z"
       id="path79"
       style="fill:#000000;fill-opacity:1" />
    <path
       d="m 11000,5730 c -8,-5 -10,-10 -5,-10 6,0 17,5 25,10 8,5 11,10 5,10 -5,0 -17,-5 -25,-10 z"
       id="path80"
       style="fill:#000000;fill-opacity:1" />
    <path
       d="m 7618,5713 c 7,-3 16,-2 19,1 4,3 -2,6 -13,5 -11,0 -14,-3 -6,-6 z"
       id="path81"
       style="fill:#000000;fill-opacity:1" />
    <path
       d="m 10950,5710 c -8,-5 -10,-10 -5,-10 6,0 17,5 25,10 8,5 11,10 5,10 -5,0 -17,-5 -25,-10 z"
       id="path82"
       style="fill:#000000;fill-opacity:1" />
    <path
       d="m 6868,5703 c 6,-2 18,-2 25,0 6,3 1,5 -13,5 -14,0 -19,-2 -12,-5 z"
       id="path83"
       style="fill:#000000;fill-opacity:1" />
    <path
       d="m 10885,5685 c -25,-12 -26,-14 -5,-9 28,7 60,23 45,23 -5,0 -23,-6 -40,-14 z"
       id="path84"
       style="fill:#000000;fill-opacity:1" />
    <path
       d="m 12008,5683 c 7,-3 16,-2 19,1 4,3 -2,6 -13,5 -11,0 -14,-3 -6,-6 z"
       id="path85"
       style="fill:#000000;fill-opacity:1" />
    <path
       d="m 11800,5655 c -58,-13 -99,-23 -92,-24 29,-2 212,33 212,41 0,10 8,11 -120,-17 z"
       id="path86"
       style="fill:#000000;fill-opacity:1" />
    <path
       d="m 11958,5673 c 7,-3 16,-2 19,1 4,3 -2,6 -13,5 -11,0 -14,-3 -6,-6 z"
       id="path87"
       style="fill:#000000;fill-opacity:1" />
    <path
       d="m 8945,5645 c 17,-14 50,-34 75,-46 43,-19 214,-70 235,-68 8,0 -129,56 -315,130 -23,9 -23,8 5,-16 z"
       id="path88"
       style="fill:#000000;fill-opacity:1" />
    <path
       d="m 6333,5653 c 9,-2 25,-2 35,0 9,3 1,5 -18,5 -19,0 -27,-2 -17,-5 z"
       id="path89"
       style="fill:#000000;fill-opacity:1" />
    <path
       d="m 6413,5643 c 9,-2 23,-2 30,0 6,3 -1,5 -18,5 -16,0 -22,-2 -12,-5 z"
       id="path90"
       style="fill:#000000;fill-opacity:1" />
    <path
       d="m 6663,5643 c 9,-2 25,-2 35,0 9,3 1,5 -18,5 -19,0 -27,-2 -17,-5 z"
       id="path91"
       style="fill:#000000;fill-opacity:1" />
    <path
       d="m 6488,5633 c 6,-2 18,-2 25,0 6,3 1,5 -13,5 -14,0 -19,-2 -12,-5 z"
       id="path92"
       style="fill:#000000;fill-opacity:1" />
    <path
       d="m 6738,5633 c 6,-2 18,-2 25,0 6,3 1,5 -13,5 -14,0 -19,-2 -12,-5 z"
       id="path93"
       style="fill:#000000;fill-opacity:1" />
    <path
       d="m 12203,5633 c 9,-2 23,-2 30,0 6,3 -1,5 -18,5 -16,0 -22,-2 -12,-5 z"
       id="path94"
       style="fill:#000000;fill-opacity:1" />
    <path
       d="m 11298,5623 c 7,-3 16,-2 19,1 4,3 -2,6 -13,5 -11,0 -14,-3 -6,-6 z"
       id="path95"
       style="fill:#000000;fill-opacity:1" />
    <path
       d="m 11658,5623 c 6,-2 18,-2 25,0 6,3 1,5 -13,5 -14,0 -19,-2 -12,-5 z"
       id="path96"
       style="fill:#000000;fill-opacity:1" />
    <path
       d="m 12138,5623 c 6,-2 18,-2 25,0 6,3 1,5 -13,5 -14,0 -19,-2 -12,-5 z"
       id="path97"
       style="fill:#000000;fill-opacity:1" />
    <path
       d="m 7173,5613 c 9,-2 23,-2 30,0 6,3 -1,5 -18,5 -16,0 -22,-2 -12,-5 z"
       id="path98"
       style="fill:#000000;fill-opacity:1" />
    <path
       d="m 11608,5613 c 7,-3 16,-2 19,1 4,3 -2,6 -13,5 -11,0 -14,-3 -6,-6 z"
       id="path99"
       style="fill:#000000;fill-opacity:1" />
    <path
       d="m 6358,5603 c 12,-2 30,-2 40,0 9,3 -1,5 -23,4 -22,0 -30,-2 -17,-4 z"
       id="path100"
       style="fill:#000000;fill-opacity:1" />
    <path
       d="m 7238,5603 c 6,-2 18,-2 25,0 6,3 1,5 -13,5 -14,0 -19,-2 -12,-5 z"
       id="path101"
       style="fill:#000000;fill-opacity:1" />
    <path
       d="m 8870,5596 c 30,-16 260,-69 268,-61 3,3 3,5 0,5 -2,0 -65,16 -139,35 -146,38 -167,41 -129,21 z"
       id="path102"
       style="fill:#000000;fill-opacity:1" />
    <path
       d="m 6453,5593 c 9,-2 25,-2 35,0 9,3 1,5 -18,5 -19,0 -27,-2 -17,-5 z"
       id="path103"
       style="fill:#000000;fill-opacity:1" />
    <path
       d="m 11288,5593 c 6,-2 18,-2 25,0 6,3 1,5 -13,5 -14,0 -19,-2 -12,-5 z"
       id="path104"
       style="fill:#000000;fill-opacity:1" />
    <path
       d="m 8028,5573 c 6,-2 18,-2 25,0 6,3 1,5 -13,5 -14,0 -19,-2 -12,-5 z"
       id="path105"
       style="fill:#000000;fill-opacity:1" />
    <path
       d="m 10658,5563 c 7,-3 16,-2 19,1 4,3 -2,6 -13,5 -11,0 -14,-3 -6,-6 z"
       id="path106"
       style="fill:#000000;fill-opacity:1" />
    <path
       d="m 10958,5563 c 6,-2 18,-2 25,0 6,3 1,5 -13,5 -14,0 -19,-2 -12,-5 z"
       id="path107"
       style="fill:#000000;fill-opacity:1" />
    <path
       d="m 11448,5563 c 6,-2 18,-2 25,0 6,3 1,5 -13,5 -14,0 -19,-2 -12,-5 z"
       id="path108"
       style="fill:#000000;fill-opacity:1" />
    <path
       d="m 10908,5553 c 6,-2 18,-2 25,0 6,3 1,5 -13,5 -14,0 -19,-2 -12,-5 z"
       id="path109"
       style="fill:#000000;fill-opacity:1" />
    <path
       d="m 6548,5513 c 17,-2 47,-2 65,0 17,2 3,4 -33,4 -36,0 -50,-2 -32,-4 z"
       id="path110"
       style="fill:#000000;fill-opacity:1" />
    <path
       d="m 10843,5473 c 9,-2 23,-2 30,0 6,3 -1,5 -18,5 -16,0 -22,-2 -12,-5 z"
       id="path111"
       style="fill:#000000;fill-opacity:1" />
    <path
       d="m 9563,5463 c 15,-2 37,-2 50,0 12,2 0,4 -28,4 -27,0 -38,-2 -22,-4 z"
       id="path112"
       style="fill:#000000;fill-opacity:1" />
    <path
       d="m 11548,5423 c 12,-2 32,-2 45,0 12,2 2,4 -23,4 -25,0 -35,-2 -22,-4 z"
       id="path113"
       style="fill:#000000;fill-opacity:1" />
    <path
       d="m 10918,5413 c 18,-2 45,-2 60,0 15,2 0,4 -33,4 -33,0 -45,-2 -27,-4 z"
       id="path114"
       style="fill:#000000;fill-opacity:1" />
    <path
       d="m 9560,5400 c -81,-8 -244,-47 -453,-109 -398,-120 -385,-114 -532,-253 -203,-192 -343,-452 -402,-745 -25,-125 -24,-386 1,-508 89,-430 358,-782 743,-974 171,-85 395,-143 542,-140 l 66,2 -78,7 c -129,13 -237,32 -237,43 0,6 15,7 38,3 134,-23 210,-28 337,-22 148,6 195,13 195,27 0,5 -25,6 -57,2 -110,-15 -372,-8 -463,11 -176,38 -345,108 -484,200 -95,64 -209,164 -200,177 3,5 -22,40 -56,77 -152,165 -267,395 -315,626 -21,105 -31,236 -18,236 6,0 12,50 16,123 4,104 29,273 43,286 15,15 15,-20 0,-91 -26,-123 -32,-350 -12,-470 80,-489 419,-885 889,-1042 138,-45 238,-60 407,-60 121,1 178,6 258,23 441,94 793,387 955,797 20,49 45,128 57,175 24,101 40,238 28,245 -11,7 -14,-4 -28,-106 -6,-47 -25,-128 -42,-180 -32,-98 -122,-290 -137,-290 -4,0 -25,-26 -46,-57 -90,-136 -398,-406 -395,-345 1,4 26,23 57,42 79,49 248,213 315,307 99,138 176,311 214,485 10,44 17,134 19,228 l 3,155 -8,-130 c -22,-343 -132,-603 -353,-831 -477,-495 -1248,-515 -1758,-46 -73,68 -155,169 -145,179 4,4 21,-11 39,-33 242,-297 588,-464 961,-464 512,0 968,312 1150,787 19,48 37,104 40,123 4,19 -6,-1 -22,-45 -110,-311 -328,-562 -612,-705 -196,-98 -366,-135 -595,-127 -146,4 -305,30 -305,49 0,11 -3,11 124,-13 152,-29 375,-23 516,14 214,56 412,170 560,323 l 85,88 -95,-90 c -210,-198 -425,-299 -722,-338 -21,-3 -38,-1 -38,4 0,11 21,17 95,25 33,4 98,18 145,32 472,136 804,533 859,1026 6,53 10,120 10,149 -1,39 -4,27 -10,-42 -12,-139 -28,-224 -60,-322 -26,-80 -78,-196 -100,-222 -5,-6 -31,-43 -58,-81 -128,-186 -311,-334 -514,-415 -72,-29 -122,-39 -102,-22 6,5 42,21 82,36 246,94 477,307 602,553 45,90 38,91 -10,3 -23,-41 -62,-104 -87,-140 -59,-84 -215,-238 -250,-247 -15,-3 -52,-22 -82,-42 -30,-19 -94,-52 -143,-73 -313,-136 -649,-129 -956,18 -209,100 -390,268 -501,467 -22,38 -28,57 -18,57 7,0 24,-21 38,-47 57,-108 229,-309 244,-285 4,7 33,-9 72,-39 36,-27 116,-74 177,-104 610,-299 1339,16 1542,665 69,222 70,433 3,663 -29,101 -30,77 -1,-33 31,-117 41,-309 24,-432 -26,-175 -113,-374 -228,-518 -411,-513 -1187,-549 -1641,-76 -132,138 -215,281 -267,461 -30,105 -51,289 -41,358 10,63 29,62 20,-1 -9,-69 12,-247 42,-350 91,-318 327,-583 624,-700 65,-26 147,-52 113,-36 -7,3 -10,11 -7,17 2,7 -26,23 -75,40 -152,53 -334,181 -440,309 -96,117 -195,309 -216,421 -12,61 10,42 29,-25 9,-35 39,-108 66,-163 308,-635 1138,-787 1655,-303 68,63 147,162 186,232 30,56 18,42 -30,-31 -53,-83 -161,-195 -251,-262 -110,-82 -301,-173 -315,-150 -4,5 2,12 12,15 154,54 283,134 393,243 l 75,74 -72,-66 c -164,-150 -339,-237 -543,-270 -107,-18 -113,-18 -262,-6 -434,37 -793,340 -904,765 -43,164 -35,424 17,562 7,19 12,23 18,13 6,-9 10,-4 15,16 20,80 115,248 191,338 47,56 25,10 -30,-63 -141,-187 -211,-439 -186,-665 47,-416 329,-748 728,-854 132,-35 346,-37 465,-5 193,53 318,123 454,257 152,150 236,303 278,508 20,98 20,276 0,374 -17,84 -67,230 -89,259 -8,11 2,-23 21,-74 44,-117 80,-342 55,-342 -4,0 -11,37 -14,83 -3,45 -15,118 -26,162 -23,88 -105,263 -146,310 l -27,30 22,-32 c 36,-55 98,-195 115,-262 66,-258 18,-525 -135,-751 -55,-80 -194,-208 -283,-258 -177,-101 -386,-142 -577,-112 -89,14 -200,48 -200,61 0,7 9,9 23,5 147,-43 177,-48 297,-49 244,-1 442,76 614,242 123,119 212,271 252,431 21,83 25,302 7,375 -7,29 -8,1 -5,-105 5,-175 -14,-273 -82,-414 -148,-312 -442,-493 -791,-489 -230,2 -443,91 -594,247 -65,66 -42,69 27,3 158,-150 357,-228 582,-229 138,0 319,42 365,85 8,6 42,28 76,47 62,34 248,205 236,216 -3,3 -39,-27 -79,-68 -148,-149 -315,-228 -535,-253 -44,-5 -53,-3 -53,10 0,12 12,15 53,15 72,0 196,33 286,75 172,82 302,208 382,370 27,55 56,127 65,160 25,93 30,276 9,376 -19,97 -67,219 -101,258 -21,23 -20,20 7,-37 43,-92 69,-211 69,-321 0,-105 -17,-221 -32,-221 -6,0 -8,11 -4,24 17,67 27,188 21,246 -7,71 -35,204 -41,198 -2,-3 3,-36 11,-74 67,-318 -101,-670 -392,-818 -59,-30 -34,-2 30,34 76,43 210,175 256,254 39,65 91,206 90,239 0,12 -7,0 -14,-26 -23,-82 -89,-209 -144,-275 -99,-119 -245,-210 -394,-247 -88,-21 -242,-21 -333,0 -190,44 -375,184 -468,356 -41,75 -25,70 20,-6 97,-168 261,-289 454,-336 78,-19 260,-16 340,5 203,55 368,192 461,382 96,197 93,438 -7,641 -20,39 -42,77 -49,83 -8,7 -1,-12 15,-42 52,-97 74,-191 74,-313 1,-199 -56,-337 -194,-476 -142,-143 -284,-205 -465,-202 -197,3 -346,64 -481,198 -90,88 -140,169 -174,280 -24,77 -40,255 -23,255 6,0 13,-43 15,-102 9,-172 77,-319 202,-435 78,-74 128,-103 236,-139 76,-25 99,-28 215,-28 114,0 139,4 203,27 105,37 177,82 257,163 136,135 206,332 185,519 l -7,60 -2,-82 c -1,-111 -19,-107 -20,5 0,48 -7,114 -16,147 -16,58 -60,165 -68,165 -3,0 9,-39 26,-87 24,-71 30,-105 30,-178 2,-177 -51,-306 -177,-430 -121,-121 -248,-175 -408,-175 -99,0 -166,14 -253,55 -71,32 -175,107 -175,125 0,6 24,-10 54,-34 178,-145 427,-172 630,-69 54,27 106,63 106,73 0,3 22,30 50,60 202,219 200,560 -5,785 -59,66 -74,71 -24,9 40,-49 83,-143 98,-212 46,-218 -67,-446 -269,-545 -75,-37 -170,-60 -157,-40 4,6 27,14 51,17 63,10 152,57 214,113 48,44 122,152 122,177 0,6 -14,-14 -32,-44 -125,-219 -393,-300 -625,-189 -55,26 -198,163 -188,179 4,6 18,-5 34,-27 44,-60 108,-113 180,-147 63,-29 72,-31 186,-31 117,0 122,1 195,36 187,89 291,284 260,487 -14,94 -76,218 -131,261 l -42,34 39,-69 c 38,-68 39,-71 39,-174 0,-95 -3,-111 -28,-162 -33,-68 -88,-117 -177,-161 -123,-61 -272,-38 -377,56 -44,41 -86,111 -103,176 -9,34 -9,59 0,108 7,35 17,66 22,69 6,4 6,-9 1,-33 -27,-129 9,-242 105,-320 128,-105 332,-94 442,23 l 35,38 -46,-37 c -25,-20 -67,-46 -94,-58 -57,-25 -154,-36 -181,-21 -15,9 -7,11 42,12 135,0 236,60 294,174 32,63 35,76 34,155 0,79 -3,92 -37,158 -20,39 -41,74 -47,78 -19,12 -10,-27 15,-59 35,-46 48,-87 36,-117 -9,-23 -10,-23 -10,8 -1,38 -13,69 -40,103 l -19,24 5,-80 c 5,-75 4,-81 -21,-111 -14,-17 -38,-33 -53,-36 -32,-6 -163,20 -178,35 -7,7 -2,9 15,4 14,-3 55,-11 91,-18 59,-10 70,-10 93,6 36,23 48,59 42,120 -19,179 -13,163 -57,180 -22,9 -45,15 -52,14 -6,0 -46,-4 -87,-8 z"
       id="path115"
       style="fill:#000000;fill-opacity:1" />
    <path
       d="m 9105,5345 c -137,-25 -199,-41 -260,-68 -44,-20 -76,-37 -71,-37 14,0 549,130 554,135 11,10 -47,3 -223,-30 z"
       id="path116"
       style="fill:#000000;fill-opacity:1" />
    <path
       d="m 6328,5363 c 7,-3 16,-2 19,1 4,3 -2,6 -13,5 -11,0 -14,-3 -6,-6 z"
       id="path117"
       style="fill:#000000;fill-opacity:1" />
    <path
       d="m 11198,5333 c 7,-3 16,-2 19,1 4,3 -2,6 -13,5 -11,0 -14,-3 -6,-6 z"
       id="path118"
       style="fill:#000000;fill-opacity:1" />
    <path
       d="m 6208,5323 c 12,-2 30,-2 40,0 9,3 -1,5 -23,4 -22,0 -30,-2 -17,-4 z"
       id="path119"
       style="fill:#000000;fill-opacity:1" />
    <path
       d="m 10688,5313 c 7,-3 16,-2 19,1 4,3 -2,6 -13,5 -11,0 -14,-3 -6,-6 z"
       id="path120"
       style="fill:#000000;fill-opacity:1" />
    <path
       d="m 11598,5313 c 7,-3 16,-2 19,1 4,3 -2,6 -13,5 -11,0 -14,-3 -6,-6 z"
       id="path121"
       style="fill:#000000;fill-opacity:1" />
    <path
       d="m 10738,5303 c 7,-3 16,-2 19,1 4,3 -2,6 -13,5 -11,0 -14,-3 -6,-6 z"
       id="path122"
       style="fill:#000000;fill-opacity:1" />
    <path
       d="m 6688,5293 c 12,-2 30,-2 40,0 9,3 -1,5 -23,4 -22,0 -30,-2 -17,-4 z"
       id="path123"
       style="fill:#000000;fill-opacity:1" />
    <path
       d="m 8815,5295 c -5,-2 -35,-11 -65,-20 -63,-19 -192,-76 -186,-82 9,-10 136,32 205,67 65,33 83,47 46,35 z"
       id="path124"
       style="fill:#000000;fill-opacity:1" />
    <path
       d="m 7568,5273 c 7,-3 16,-2 19,1 4,3 -2,6 -13,5 -11,0 -14,-3 -6,-6 z"
       id="path125"
       style="fill:#000000;fill-opacity:1" />
    <path
       d="m 11188,5253 c 7,-3 16,-2 19,1 4,3 -2,6 -13,5 -11,0 -14,-3 -6,-6 z"
       id="path126"
       style="fill:#000000;fill-opacity:1" />
    <path
       d="m 8782,5225 c -79,-19 -108,-32 -190,-88 -53,-35 -133,-95 -176,-133 -93,-80 -239,-252 -231,-272 3,-7 -15,-46 -39,-85 -121,-200 -197,-415 -227,-642 -17,-129 -6,-414 20,-533 102,-464 392,-859 796,-1086 47,-26 85,-52 85,-58 0,-13 -114,50 -221,124 -346,235 -586,595 -680,1020 -30,136 -37,425 -14,572 23,148 66,297 124,427 27,60 47,109 44,109 -11,0 -113,-233 -141,-321 -99,-309 -108,-645 -27,-949 85,-314 268,-613 505,-818 118,-104 144,-122 260,-193 291,-176 670,-263 1000,-230 144,15 249,36 264,54 6,8 39,22 74,31 235,64 496,219 682,405 l 86,86 -80,-75 c -45,-42 -101,-92 -126,-112 -208,-165 -493,-293 -751,-337 -148,-25 -354,-38 -363,-22 -5,8 21,11 91,13 80,1 68,2 -67,9 -403,18 -738,147 -1039,403 -79,66 -241,240 -241,258 0,19 18,5 53,-41 69,-91 242,-246 359,-324 181,-121 372,-202 585,-247 114,-25 408,-38 516,-23 61,9 86,4 55,-11 -26,-12 80,6 173,29 381,96 724,338 952,671 34,50 67,89 73,87 16,-5 118,217 153,332 61,204 75,293 75,490 0,199 -15,309 -65,478 -31,102 -110,291 -135,323 -8,11 -1,-9 16,-44 42,-86 94,-245 122,-372 19,-91 22,-133 22,-320 0,-183 -3,-230 -22,-317 -43,-197 -115,-380 -212,-538 -143,-233 -396,-472 -622,-586 -86,-44 -70,-17 19,31 207,112 413,301 548,505 98,148 198,394 241,595 29,131 27,487 -4,626 -67,309 -219,599 -419,802 -53,53 -69,68 -37,32 33,-36 82,-94 109,-130 27,-36 58,-74 68,-85 26,-29 100,-159 135,-240 178,-409 171,-871 -19,-1283 -21,-46 -37,-87 -36,-90 4,-13 -61,-118 -124,-203 -246,-326 -630,-552 -1033,-608 -115,-16 -351,-13 -472,5 -57,9 -104,20 -104,25 0,11 0,12 100,-5 137,-23 257,-28 386,-16 125,11 272,41 283,57 3,5 42,22 86,37 201,69 409,197 561,343 44,43 64,63 44,45 -20,-18 -39,-30 -43,-26 -3,3 -39,-21 -79,-54 -200,-164 -430,-275 -682,-327 -110,-22 -236,-31 -236,-16 0,7 19,11 48,11 203,0 522,111 739,257 97,65 258,213 333,309 116,145 239,380 245,468 1,24 7,58 14,77 81,250 73,597 -20,882 -69,210 -187,410 -334,562 -85,89 -77,73 30,-55 70,-84 168,-248 212,-356 113,-279 134,-591 58,-891 -16,-61 -21,-99 -15,-103 24,-15 -78,-239 -169,-374 -214,-317 -558,-545 -931,-616 -440,-85 -884,35 -1230,333 -212,183 -380,453 -450,725 -21,86 -24,112 -12,112 4,0 17,-40 28,-89 92,-378 345,-709 695,-908 103,-58 327,-135 458,-157 119,-20 347,-21 466,-1 453,74 847,361 1051,767 48,96 42,99 -9,3 -97,-184 -237,-350 -401,-475 -51,-38 -95,-70 -99,-70 -20,0 -1,21 56,60 141,100 304,280 399,443 84,145 192,464 160,475 -7,2 -12,16 -13,30 0,15 -7,-2 -14,-37 -120,-553 -568,-985 -1117,-1079 -64,-11 -98,-21 -98,-29 0,-10 -32,-13 -134,-13 -384,0 -725,139 -992,405 -258,257 -395,567 -411,935 -17,400 123,747 421,1045 67,66 121,124 121,130 0,5 52,26 115,46 131,42 128,47 -8,14 z M 8199,3324 c 83,-185 272,-415 451,-550 47,-36 147,-95 225,-134 224,-111 403,-153 650,-153 168,0 292,18 436,63 49,15 92,24 94,19 3,-4 -30,-19 -73,-33 -304,-96 -634,-93 -937,9 -357,119 -677,400 -849,742 -25,51 -46,97 -46,103 0,27 18,3 49,-66 z m 64,-424 c 230,-305 569,-520 945,-601 127,-26 375,-36 507,-19 69,8 100,9 104,1 5,-7 37,-3 101,14 189,51 346,122 506,230 53,36 99,63 102,60 7,-6 -11,-21 -113,-89 -163,-109 -366,-194 -569,-238 -87,-19 -131,-22 -321,-22 -207,0 -227,1 -340,28 -176,41 -395,125 -395,151 0,6 -33,31 -72,55 -211,124 -404,309 -535,513 -24,37 -41,73 -37,78 3,5 21,-16 41,-48 19,-32 53,-83 76,-113 z m 308,-130 c 177,-149 416,-262 669,-317 122,-26 459,-26 580,1 195,42 380,119 529,220 92,61 137,72 56,13 -184,-134 -449,-236 -690,-268 -127,-16 -385,-6 -500,21 -193,44 -361,113 -510,210 -89,59 -195,141 -195,153 0,14 14,7 61,-33 z"
       id="path127"
       style="fill:#000000;fill-opacity:1" />
    <path
       d="m 9358,2253 c 7,-3 16,-2 19,1 4,3 -2,6 -13,5 -11,0 -14,-3 -6,-6 z"
       id="path128"
       style="fill:#000000;fill-opacity:1" />
    <path
       d="m 9678,2253 c 7,-3 16,-2 19,1 4,3 -2,6 -13,5 -11,0 -14,-3 -6,-6 z"
       id="path129"
       style="fill:#000000;fill-opacity:1" />
    <path
       d="m 11240,5240 c 14,-4 34,-8 45,-8 16,0 15,2 -5,8 -14,4 -34,8 -45,8 -16,0 -15,-2 5,-8 z"
       id="path130"
       style="fill:#000000;fill-opacity:1" />
    <path
       d="m 6908,5233 c 6,-2 18,-2 25,0 6,3 1,5 -13,5 -14,0 -19,-2 -12,-5 z"
       id="path131"
       style="fill:#000000;fill-opacity:1" />
    <path
       d="m 11458,5223 c 7,-3 16,-2 19,1 4,3 -2,6 -13,5 -11,0 -14,-3 -6,-6 z"
       id="path132"
       style="fill:#000000;fill-opacity:1" />
    <path
       d="m 11748,5193 c 7,-3 16,-2 19,1 4,3 -2,6 -13,5 -11,0 -14,-3 -6,-6 z"
       id="path133"
       style="fill:#000000;fill-opacity:1" />
    <path
       d="m 12678,5193 c 7,-3 16,-2 19,1 4,3 -2,6 -13,5 -11,0 -14,-3 -6,-6 z"
       id="path134"
       style="fill:#000000;fill-opacity:1" />
    <path
       d="m 12738,5183 c 6,-2 18,-2 25,0 6,3 1,5 -13,5 -14,0 -19,-2 -12,-5 z"
       id="path135"
       style="fill:#000000;fill-opacity:1" />
    <path
       d="m 11838,5173 c 7,-3 16,-2 19,1 4,3 -2,6 -13,5 -11,0 -14,-3 -6,-6 z"
       id="path136"
       style="fill:#000000;fill-opacity:1" />
    <path
       d="m 12798,5173 c 6,-2 18,-2 25,0 6,3 1,5 -13,5 -14,0 -19,-2 -12,-5 z"
       id="path137"
       style="fill:#000000;fill-opacity:1" />
    <path
       d="m 7378,5163 c 7,-3 16,-2 19,1 4,3 -2,6 -13,5 -11,0 -14,-3 -6,-6 z"
       id="path138"
       style="fill:#000000;fill-opacity:1" />
    <path
       d="m 8395,5148 c -98,-55 -156,-91 -152,-95 5,-4 177,96 177,104 0,5 -3,4 -25,-9 z"
       id="path139"
       style="fill:#000000;fill-opacity:1" />
    <path
       d="m 10930,5135 c 14,-8 30,-14 35,-14 6,0 -1,6 -15,14 -14,8 -29,14 -35,14 -5,0 1,-6 15,-14 z"
       id="path140"
       style="fill:#000000;fill-opacity:1" />
    <path
       d="m 7008,5123 c 7,-3 16,-2 19,1 4,3 -2,6 -13,5 -11,0 -14,-3 -6,-6 z"
       id="path141"
       style="fill:#000000;fill-opacity:1" />
    <path
       d="m 8274,5104 c -18,-14 -18,-15 4,-4 12,6 22,13 22,15 0,8 -5,6 -26,-11 z"
       id="path142"
       style="fill:#000000;fill-opacity:1" />
    <path
       d="m 10485,5070 c 10,-11 20,-20 23,-20 3,0 -3,9 -13,20 -10,11 -20,20 -23,20 -3,0 3,-9 13,-20 z"
       id="path143"
       style="fill:#000000;fill-opacity:1" />
    <path
       d="m 6688,5073 c 7,-3 16,-2 19,1 4,3 -2,6 -13,5 -11,0 -14,-3 -6,-6 z"
       id="path144"
       style="fill:#000000;fill-opacity:1" />
    <path
       d="m 6648,5063 c 7,-3 16,-2 19,1 4,3 -2,6 -13,5 -11,0 -14,-3 -6,-6 z"
       id="path145"
       style="fill:#000000;fill-opacity:1" />
    <path
       d="m 10885,5055 c 11,-9 29,-21 40,-26 l 20,-10 -20,16 c -11,9 -29,21 -40,26 l -20,10 z"
       id="path146"
       style="fill:#000000;fill-opacity:1" />
    <path
       d="m 6128,5053 c 7,-3 16,-2 19,1 4,3 -2,6 -13,5 -11,0 -14,-3 -6,-6 z"
       id="path147"
       style="fill:#000000;fill-opacity:1" />
    <path
       d="m 6148,5033 c 7,-3 16,-2 19,1 4,3 -2,6 -13,5 -11,0 -14,-3 -6,-6 z"
       id="path148"
       style="fill:#000000;fill-opacity:1" />
    <path
       d="m 6108,5023 c 7,-3 16,-2 19,1 4,3 -2,6 -13,5 -11,0 -14,-3 -6,-6 z"
       id="path149"
       style="fill:#000000;fill-opacity:1" />
    <path
       d="m 6068,5013 c 7,-3 16,-2 19,1 4,3 -2,6 -13,5 -11,0 -14,-3 -6,-6 z"
       id="path150"
       style="fill:#000000;fill-opacity:1" />
    <path
       d="m 10860,4903 c 69,-66 127,-119 129,-117 7,7 -96,109 -179,177 -60,49 -51,38 50,-60 z"
       id="path151"
       style="fill:#000000;fill-opacity:1" />
    <path
       d="m 7060,5000 c -8,-5 -10,-10 -5,-10 6,0 17,5 25,10 8,5 11,10 5,10 -5,0 -17,-5 -25,-10 z"
       id="path152"
       style="fill:#000000;fill-opacity:1" />
    <path
       d="m 11290,5000 c 37,-26 203,-120 213,-120 6,0 3,6 -8,14 -25,16 -226,121 -205,106 z"
       id="path153"
       style="fill:#000000;fill-opacity:1" />
    <path
       d="m 12100,4930 c 8,-5 20,-10 25,-10 6,0 3,5 -5,10 -8,5 -19,10 -25,10 -5,0 -3,-5 5,-10 z"
       id="path154"
       style="fill:#000000;fill-opacity:1" />
    <path
       d="m 10162,4910 c 0,-14 2,-19 5,-12 2,6 2,18 0,25 -3,6 -5,1 -5,-13 z"
       id="path155"
       style="fill:#000000;fill-opacity:1" />
    <path
       d="m 7188,4854 c -38,-20 -36,-28 2,-9 17,9 30,18 30,20 0,7 -1,6 -32,-11 z"
       id="path156"
       style="fill:#000000;fill-opacity:1" />
    <path
       d="m 7364,4854 c -18,-14 -18,-15 4,-4 12,6 22,13 22,15 0,8 -5,6 -26,-11 z"
       id="path157"
       style="fill:#000000;fill-opacity:1" />
    <path
       d="m 7404,4844 c -18,-14 -18,-15 4,-4 12,6 22,13 22,15 0,8 -5,6 -26,-11 z"
       id="path158"
       style="fill:#000000;fill-opacity:1" />
    <path
       d="m 6040,4780 c -8,-5 -10,-10 -5,-10 6,0 17,5 25,10 8,5 11,10 5,10 -5,0 -17,-5 -25,-10 z"
       id="path159"
       style="fill:#000000;fill-opacity:1" />
    <path
       d="m 7539,4773 c -13,-16 -12,-17 4,-4 9,7 17,15 17,17 0,8 -8,3 -21,-13 z"
       id="path160"
       style="fill:#000000;fill-opacity:1" />
    <path
       d="m 10371,4774 c 0,-11 3,-14 6,-6 3,7 2,16 -1,19 -3,4 -6,-2 -5,-13 z"
       id="path161"
       style="fill:#000000;fill-opacity:1" />
    <path
       d="m 11119,4725 c 33,-38 69,-81 80,-95 11,-14 20,-20 21,-15 0,6 -36,48 -81,95 -72,76 -74,78 -20,15 z"
       id="path162"
       style="fill:#000000;fill-opacity:1" />
    <path
       d="m 11450,4786 c 0,-2 8,-10 18,-17 15,-13 16,-12 3,4 -13,16 -21,21 -21,13 z"
       id="path163"
       style="fill:#000000;fill-opacity:1" />
    <path
       d="m 10709,4703 c 21,-43 50,-112 65,-153 15,-41 29,-81 32,-89 2,-8 7,-11 10,-9 13,14 -122,328 -142,328 -2,0 13,-35 35,-77 z"
       id="path164"
       style="fill:#000000;fill-opacity:1" />
    <path
       d="m 8543,4633 c -28,-121 -24,-338 10,-464 28,-106 75,-216 129,-300 54,-84 147,-189 162,-183 8,3 29,-8 47,-24 19,-16 67,-50 106,-76 386,-249 914,-190 1233,138 55,57 48,60 -11,5 -360,-338 -901,-370 -1290,-77 -170,128 -293,306 -355,515 -35,117 -44,325 -20,452 8,47 14,87 12,89 -3,2 -13,-32 -23,-75 z"
       id="path165"
       style="fill:#000000;fill-opacity:1" />
    <path
       d="m 10252,4595 c 0,-16 2,-22 5,-12 2,9 2,23 0,30 -3,6 -5,-1 -5,-18 z"
       id="path166"
       style="fill:#000000;fill-opacity:1" />
    <path
       d="m 12920,4575 c 0,-2 18,-14 40,-25 22,-11 40,-18 40,-15 0,2 -18,14 -40,25 -22,11 -40,18 -40,15 z"
       id="path167"
       style="fill:#000000;fill-opacity:1" />
    <path
       d="m 10692,4450 c 0,-14 2,-19 5,-12 2,6 2,18 0,25 -3,6 -5,1 -5,-13 z"
       id="path168"
       style="fill:#000000;fill-opacity:1" />
    <path
       d="m 10573,4400 c 0,-25 2,-35 4,-22 2,12 2,32 0,45 -2,12 -4,2 -4,-23 z"
       id="path169"
       style="fill:#000000;fill-opacity:1" />
    <path
       d="m 10703,4375 c 0,-22 2,-30 4,-17 2,12 2,30 0,40 -3,9 -5,-1 -4,-23 z"
       id="path170"
       style="fill:#000000;fill-opacity:1" />
    <path
       d="m 10761,4394 c 0,-11 3,-14 6,-6 3,7 2,16 -1,19 -3,4 -6,-2 -5,-13 z"
       id="path171"
       style="fill:#000000;fill-opacity:1" />
    <path
       d="m 6259,4383 c -13,-16 -12,-17 4,-4 9,7 17,15 17,17 0,8 -8,3 -21,-13 z"
       id="path172"
       style="fill:#000000;fill-opacity:1" />
    <path
       d="m 10831,4374 c 0,-11 3,-14 6,-6 3,7 2,16 -1,19 -3,4 -6,-2 -5,-13 z"
       id="path173"
       style="fill:#000000;fill-opacity:1" />
    <path
       d="m 11307,4260 c 30,-71 66,-177 81,-235 15,-59 32,-105 39,-105 23,0 -46,212 -122,376 -24,52 -46,94 -48,94 -2,0 20,-58 50,-130 z"
       id="path174"
       style="fill:#000000;fill-opacity:1" />
    <path
       d="m 10772,4330 c 0,-19 2,-27 5,-17 2,9 2,25 0,35 -3,9 -5,1 -5,-18 z"
       id="path175"
       style="fill:#000000;fill-opacity:1" />
    <path
       d="m 10842,4330 c 0,-14 2,-19 5,-12 2,6 2,18 0,25 -3,6 -5,1 -5,-13 z"
       id="path176"
       style="fill:#000000;fill-opacity:1" />
    <path
       d="m 12210,4285 c 19,-19 36,-35 39,-35 3,0 -10,16 -29,35 -19,19 -36,35 -39,35 -3,0 10,-16 29,-35 z"
       id="path177"
       style="fill:#000000;fill-opacity:1" />
    <path
       d="m 7259,4283 c -13,-16 -12,-17 4,-4 16,13 21,21 13,21 -2,0 -10,-8 -17,-17 z"
       id="path178"
       style="fill:#000000;fill-opacity:1" />
    <path
       d="m 10858,4175 c 8,-224 -35,-437 -127,-631 -184,-387 -519,-650 -944,-741 -117,-26 -409,-25 -527,1 -337,73 -632,270 -827,553 -50,73 -75,105 -58,73 41,-73 125,-181 202,-261 195,-201 416,-321 696,-380 131,-28 350,-30 483,-6 183,33 399,123 533,222 41,30 62,40 69,33 16,-16 207,181 274,282 95,144 184,342 214,477 19,83 29,365 16,448 -7,47 -8,32 -4,-70 z"
       id="path179"
       style="fill:#000000;fill-opacity:1" />
    <path
       d="m 7029,4243 c -13,-16 -12,-17 4,-4 9,7 17,15 17,17 0,8 -8,3 -21,-13 z"
       id="path180"
       style="fill:#000000;fill-opacity:1" />
    <path
       d="m 6204,4228 -19,-23 23,19 c 12,11 22,21 22,23 0,8 -8,2 -26,-19 z"
       id="path181"
       style="fill:#000000;fill-opacity:1" />
    <path
       d="m 6134,4168 -29,-33 33,29 c 17,17 32,31 32,33 0,8 -8,1 -36,-29 z"
       id="path182"
       style="fill:#000000;fill-opacity:1" />
    <path
       d="m 11386,4160 c 3,-14 11,-32 16,-40 6,-10 7,-7 2,10 -3,14 -11,32 -16,40 -6,10 -7,7 -2,-10 z"
       id="path183"
       style="fill:#000000;fill-opacity:1" />
    <path
       d="m 12300,4146 c 0,-2 8,-10 18,-17 15,-13 16,-12 3,4 -13,16 -21,21 -21,13 z"
       id="path184"
       style="fill:#000000;fill-opacity:1" />
    <path
       d="m 12355,4080 c 10,-11 20,-20 23,-20 3,0 -3,9 -13,20 -10,11 -20,20 -23,20 -3,0 3,-9 13,-20 z"
       id="path185"
       style="fill:#000000;fill-opacity:1" />
    <path
       d="m 10913,3970 c 0,-25 2,-35 4,-22 2,12 2,32 0,45 -2,12 -4,2 -4,-23 z"
       id="path186"
       style="fill:#000000;fill-opacity:1" />
    <path
       d="m 7712,3970 c 0,-14 2,-19 5,-12 2,6 2,18 0,25 -3,6 -5,1 -5,-13 z"
       id="path187"
       style="fill:#000000;fill-opacity:1" />
    <path
       d="m 10732,3970 c 0,-14 2,-19 5,-12 2,6 2,18 0,25 -3,6 -5,1 -5,-13 z"
       id="path188"
       style="fill:#000000;fill-opacity:1" />
    <path
       d="m 6329,3943 c -13,-16 -12,-17 4,-4 16,13 21,21 13,21 -2,0 -10,-8 -17,-17 z"
       id="path189"
       style="fill:#000000;fill-opacity:1" />
    <path
       d="m 7691,3873 c -19,-99 -26,-432 -12,-539 11,-80 34,-195 62,-296 6,-24 16,-38 25,-38 11,0 14,5 9,18 -17,43 -56,206 -71,297 -21,123 -24,424 -5,538 16,97 9,113 -8,20 z"
       id="path190"
       style="fill:#000000;fill-opacity:1" />
    <path
       d="m 10721,3924 c 0,-11 3,-14 6,-6 3,7 2,16 -1,19 -3,4 -6,-2 -5,-13 z"
       id="path191"
       style="fill:#000000;fill-opacity:1" />
    <path
       d="m 10902,3870 c 0,-19 2,-27 5,-17 2,9 2,25 0,35 -3,9 -5,1 -5,-18 z"
       id="path192"
       style="fill:#000000;fill-opacity:1" />
    <path
       d="m 10596,3855 c -9,-26 -7,-32 5,-12 6,10 9,21 6,23 -2,3 -7,-2 -11,-11 z"
       id="path193"
       style="fill:#000000;fill-opacity:1" />
    <path
       d="m 11745,3770 c 3,-14 16,-72 30,-130 13,-58 27,-123 31,-145 4,-22 9,-33 11,-24 5,20 -42,233 -63,286 -8,21 -12,27 -9,13 z"
       id="path194"
       style="fill:#000000;fill-opacity:1" />
    <path
       d="m 10329,3763 c -13,-16 -12,-17 4,-4 16,13 21,21 13,21 -2,0 -10,-8 -17,-17 z"
       id="path195"
       style="fill:#000000;fill-opacity:1" />
    <path
       d="m 11304,3625 c 0,-66 1,-92 3,-57 2,34 2,88 0,120 -2,31 -3,3 -3,-63 z"
       id="path196"
       style="fill:#000000;fill-opacity:1" />
    <path
       d="m 11453,3665 c 0,-22 2,-30 4,-17 2,12 2,30 0,40 -3,9 -5,-1 -4,-23 z"
       id="path197"
       style="fill:#000000;fill-opacity:1" />
    <path
       d="m 6956,3675 c -9,-26 -7,-32 5,-12 6,10 9,21 6,23 -2,3 -7,-2 -11,-11 z"
       id="path198"
       style="fill:#000000;fill-opacity:1" />
    <path
       d="m 11482,3610 c 0,-14 2,-19 5,-12 2,6 2,18 0,25 -3,6 -5,1 -5,-13 z"
       id="path199"
       style="fill:#000000;fill-opacity:1" />
    <path
       d="m 7231,3504 c 0,-11 3,-14 6,-6 3,7 2,16 -1,19 -3,4 -6,-2 -5,-13 z"
       id="path200"
       style="fill:#000000;fill-opacity:1" />
    <path
       d="m 10479,3483 c -13,-16 -12,-17 4,-4 16,13 21,21 13,21 -2,0 -10,-8 -17,-17 z"
       id="path201"
       style="fill:#000000;fill-opacity:1" />
    <path
       d="m 7222,3440 c 0,-14 2,-19 5,-12 2,6 2,18 0,25 -3,6 -5,1 -5,-13 z"
       id="path202"
       style="fill:#000000;fill-opacity:1" />
    <path
       d="m 7292,3435 c 0,-16 2,-22 5,-12 2,9 2,23 0,30 -3,6 -5,-1 -5,-18 z"
       id="path203"
       style="fill:#000000;fill-opacity:1" />
    <path
       d="m 11901,3414 c 0,-11 3,-14 6,-6 3,7 2,16 -1,19 -3,4 -6,-2 -5,-13 z"
       id="path204"
       style="fill:#000000;fill-opacity:1" />
    <path
       d="m 7212,3360 c 0,-19 2,-27 5,-17 2,9 2,25 0,35 -3,9 -5,1 -5,-18 z"
       id="path205"
       style="fill:#000000;fill-opacity:1" />
    <path
       d="m 11912,3345 c 0,-16 2,-22 5,-12 2,9 2,23 0,30 -3,6 -5,-1 -5,-18 z"
       id="path206"
       style="fill:#000000;fill-opacity:1" />
    <path
       d="m 9748,3323 c 7,-3 16,-2 19,1 4,3 -2,6 -13,5 -11,0 -14,-3 -6,-6 z"
       id="path207"
       style="fill:#000000;fill-opacity:1" />
    <path
       d="m 9338,3313 c 6,-2 18,-2 25,0 6,3 1,5 -13,5 -14,0 -19,-2 -12,-5 z"
       id="path208"
       style="fill:#000000;fill-opacity:1" />
    <path
       d="m 9698,3313 c 7,-3 16,-2 19,1 4,3 -2,6 -13,5 -11,0 -14,-3 -6,-6 z"
       id="path209"
       style="fill:#000000;fill-opacity:1" />
    <path
       d="m 9418,3303 c 12,-2 30,-2 40,0 9,3 -1,5 -23,4 -22,0 -30,-2 -17,-4 z"
       id="path210"
       style="fill:#000000;fill-opacity:1" />
    <path
       d="m 9608,3303 c 12,-2 30,-2 40,0 9,3 -1,5 -23,4 -22,0 -30,-2 -17,-4 z"
       id="path211"
       style="fill:#000000;fill-opacity:1" />
    <path
       d="m 9027,3289 c 7,-7 15,-10 18,-7 3,3 -2,9 -12,12 -14,6 -15,5 -6,-5 z"
       id="path212"
       style="fill:#000000;fill-opacity:1" />
    <path
       d="m 9738,3293 c 7,-3 16,-2 19,1 4,3 -2,6 -13,5 -11,0 -14,-3 -6,-6 z"
       id="path213"
       style="fill:#000000;fill-opacity:1" />
    <path
       d="m 11923,3260 c 0,-25 2,-35 4,-22 2,12 2,32 0,45 -2,12 -4,2 -4,-23 z"
       id="path214"
       style="fill:#000000;fill-opacity:1" />
    <path
       d="m 9358,3283 c 7,-3 16,-2 19,1 4,3 -2,6 -13,5 -11,0 -14,-3 -6,-6 z"
       id="path215"
       style="fill:#000000;fill-opacity:1" />
    <path
       d="m 9678,3283 c 6,-2 18,-2 25,0 6,3 1,5 -13,5 -14,0 -19,-2 -12,-5 z"
       id="path216"
       style="fill:#000000;fill-opacity:1" />
    <path
       d="m 9473,3273 c 32,-2 81,-2 110,0 29,2 3,3 -58,3 -60,0 -84,-1 -52,-3 z"
       id="path217"
       style="fill:#000000;fill-opacity:1" />
    <path
       d="m 9970,3270 c -8,-5 -10,-10 -5,-10 6,0 17,5 25,10 8,5 11,10 5,10 -5,0 -17,-5 -25,-10 z"
       id="path218"
       style="fill:#000000;fill-opacity:1" />
    <path
       d="m 9140,3240 c 8,-5 20,-10 25,-10 6,0 3,5 -5,10 -8,5 -19,10 -25,10 -5,0 -3,-5 5,-10 z"
       id="path219"
       style="fill:#000000;fill-opacity:1" />
    <path
       d="m 9188,3223 c 7,-3 16,-2 19,1 4,3 -2,6 -13,5 -11,0 -14,-3 -6,-6 z"
       id="path220"
       style="fill:#000000;fill-opacity:1" />
    <path
       d="m 9818,3213 c 7,-3 16,-2 19,1 4,3 -2,6 -13,5 -11,0 -14,-3 -6,-6 z"
       id="path221"
       style="fill:#000000;fill-opacity:1" />
    <path
       d="m 9258,3203 c 6,-2 18,-2 25,0 6,3 1,5 -13,5 -14,0 -19,-2 -12,-5 z"
       id="path222"
       style="fill:#000000;fill-opacity:1" />
    <path
       d="m 9778,3203 c 7,-3 16,-2 19,1 4,3 -2,6 -13,5 -11,0 -14,-3 -6,-6 z"
       id="path223"
       style="fill:#000000;fill-opacity:1" />
    <path
       d="m 9308,3193 c 6,-2 18,-2 25,0 6,3 1,5 -13,5 -14,0 -19,-2 -12,-5 z"
       id="path224"
       style="fill:#000000;fill-opacity:1" />
    <path
       d="m 9728,3193 c 6,-2 18,-2 25,0 6,3 1,5 -13,5 -14,0 -19,-2 -12,-5 z"
       id="path225"
       style="fill:#000000;fill-opacity:1" />
    <path
       d="m 11934,3055 c 0,-82 2,-115 3,-72 2,43 2,110 0,150 -1,40 -3,5 -3,-78 z"
       id="path226"
       style="fill:#000000;fill-opacity:1" />
    <path
       d="m 9363,3183 c 9,-2 25,-2 35,0 9,3 1,5 -18,5 -19,0 -27,-2 -17,-5 z"
       id="path227"
       style="fill:#000000;fill-opacity:1" />
    <path
       d="m 9658,3183 c 12,-2 30,-2 40,0 9,3 -1,5 -23,4 -22,0 -30,-2 -17,-4 z"
       id="path228"
       style="fill:#000000;fill-opacity:1" />
    <path
       d="m 9478,3173 c 29,-2 74,-2 100,0 26,2 2,3 -53,3 -55,0 -76,-1 -47,-3 z"
       id="path229"
       style="fill:#000000;fill-opacity:1" />
    <path
       d="m 11592,2965 c 0,-16 2,-22 5,-12 2,9 2,23 0,30 -3,6 -5,-1 -5,-18 z"
       id="path230"
       style="fill:#000000;fill-opacity:1" />
    <path
       d="m 7233,2930 c 0,-25 2,-35 4,-22 2,12 2,32 0,45 -2,12 -4,2 -4,-23 z"
       id="path231"
       style="fill:#000000;fill-opacity:1" />
    <path
       d="m 7790,2955 c 0,-5 5,-17 10,-25 5,-8 10,-10 10,-5 0,6 -5,17 -10,25 -5,8 -10,11 -10,5 z"
       id="path232"
       style="fill:#000000;fill-opacity:1" />
    <path
       d="m 11576,2894 c -4,-20 -5,-38 -3,-40 3,-3 8,11 11,32 4,20 5,38 3,40 -3,3 -8,-11 -11,-32 z"
       id="path233"
       style="fill:#000000;fill-opacity:1" />
    <path
       d="m 7810,2905 c 0,-5 5,-17 10,-25 5,-8 10,-10 10,-5 0,6 -5,17 -10,25 -5,8 -10,11 -10,5 z"
       id="path234"
       style="fill:#000000;fill-opacity:1" />
    <path
       d="m 10694,2888 -19,-23 23,19 c 21,18 27,26 19,26 -2,0 -12,-10 -23,-22 z"
       id="path235"
       style="fill:#000000;fill-opacity:1" />
    <path
       d="m 7242,2840 c 0,-19 2,-27 5,-17 2,9 2,25 0,35 -3,9 -5,1 -5,-18 z"
       id="path236"
       style="fill:#000000;fill-opacity:1" />
    <path
       d="m 7830,2857 c 0,-4 22,-52 49,-106 76,-150 243,-391 272,-391 5,0 -15,29 -45,64 -77,91 -151,204 -218,331 -32,61 -58,107 -58,102 z"
       id="path237"
       style="fill:#000000;fill-opacity:1" />
    <path
       d="m 11921,2834 c 0,-11 3,-14 6,-6 3,7 2,16 -1,19 -3,4 -6,-2 -5,-13 z"
       id="path238"
       style="fill:#000000;fill-opacity:1" />
    <path
       d="m 7840,2776 c 0,-11 50,-106 55,-106 3,0 -7,24 -21,53 -28,55 -34,65 -34,53 z"
       id="path239"
       style="fill:#000000;fill-opacity:1" />
    <path
       d="m 9218,2773 c 7,-3 16,-2 19,1 4,3 -2,6 -13,5 -11,0 -14,-3 -6,-6 z"
       id="path240"
       style="fill:#000000;fill-opacity:1" />
    <path
       d="m 9268,2763 c 7,-3 16,-2 19,1 4,3 -2,6 -13,5 -11,0 -14,-3 -6,-6 z"
       id="path241"
       style="fill:#000000;fill-opacity:1" />
    <path
       d="m 9778,2763 c 7,-3 16,-2 19,1 4,3 -2,6 -13,5 -11,0 -14,-3 -6,-6 z"
       id="path242"
       style="fill:#000000;fill-opacity:1" />
    <path
       d="m 9318,2753 c 6,-2 18,-2 25,0 6,3 1,5 -13,5 -14,0 -19,-2 -12,-5 z"
       id="path243"
       style="fill:#000000;fill-opacity:1" />
    <path
       d="m 9708,2753 c 6,-2 18,-2 25,0 6,3 1,5 -13,5 -14,0 -19,-2 -12,-5 z"
       id="path244"
       style="fill:#000000;fill-opacity:1" />
    <path
       d="m 11912,2740 c 0,-14 2,-19 5,-12 2,6 2,18 0,25 -3,6 -5,1 -5,-13 z"
       id="path245"
       style="fill:#000000;fill-opacity:1" />
    <path
       d="m 9408,2743 c 12,-2 30,-2 40,0 9,3 -1,5 -23,4 -22,0 -30,-2 -17,-4 z"
       id="path246"
       style="fill:#000000;fill-opacity:1" />
    <path
       d="m 9608,2743 c 12,-2 32,-2 45,0 12,2 2,4 -23,4 -25,0 -35,-2 -22,-4 z"
       id="path247"
       style="fill:#000000;fill-opacity:1" />
    <path
       d="m 10809,2693 c -13,-16 -12,-17 4,-4 9,7 17,15 17,17 0,8 -8,3 -21,-13 z"
       id="path248"
       style="fill:#000000;fill-opacity:1" />
    <path
       d="m 11901,2664 c 0,-11 3,-14 6,-6 3,7 2,16 -1,19 -3,4 -6,-2 -5,-13 z"
       id="path249"
       style="fill:#000000;fill-opacity:1" />
    <path
       d="m 11891,2604 c 0,-11 3,-14 6,-6 3,7 2,16 -1,19 -3,4 -6,-2 -5,-13 z"
       id="path250"
       style="fill:#000000;fill-opacity:1" />
    <path
       d="m 11882,2550 c 0,-14 2,-19 5,-12 2,6 2,18 0,25 -3,6 -5,1 -5,-13 z"
       id="path251"
       style="fill:#000000;fill-opacity:1" />
    <path
       d="m 11871,2504 c 0,-11 3,-14 6,-6 3,7 2,16 -1,19 -3,4 -6,-2 -5,-13 z"
       id="path252"
       style="fill:#000000;fill-opacity:1" />
    <path
       d="m 9688,2123 c 12,-2 30,-2 40,0 9,3 -1,5 -23,4 -22,0 -30,-2 -17,-4 z"
       id="path253"
       style="fill:#000000;fill-opacity:1" />
    <path
       d="m 9188,2073 c 7,-3 16,-2 19,1 4,3 -2,6 -13,5 -11,0 -14,-3 -6,-6 z"
       id="path254"
       style="fill:#000000;fill-opacity:1" />
    <path
       d="m 9798,2063 c 7,-3 16,-2 19,1 4,3 -2,6 -13,5 -11,0 -14,-3 -6,-6 z"
       id="path255"
       style="fill:#000000;fill-opacity:1" />
    <path
       d="m 9308,2053 c 6,-2 18,-2 25,0 6,3 1,5 -13,5 -14,0 -19,-2 -12,-5 z"
       id="path256"
       style="fill:#000000;fill-opacity:1" />
    <path
       d="m 9718,2053 c 6,-2 18,-2 25,0 6,3 1,5 -13,5 -14,0 -19,-2 -12,-5 z"
       id="path257"
       style="fill:#000000;fill-opacity:1" />
    <path
       d="m 9423,2043 c 15,-2 37,-2 50,0 12,2 0,4 -28,4 -27,0 -38,-2 -22,-4 z"
       id="path258"
       style="fill:#000000;fill-opacity:1" />
    <path
       d="m 9583,2043 c 15,-2 39,-2 55,0 15,2 2,4 -28,4 -30,0 -43,-2 -27,-4 z"
       id="path259"
       style="fill:#000000;fill-opacity:1" />
    <path
       d="m 7531,2934 c 0,-11 3,-14 6,-6 3,7 2,16 -1,19 -3,4 -6,-2 -5,-13 z"
       id="path260"
       style="fill:#000000;fill-opacity:1" />
    <path
       d="m 7541,2894 c 0,-11 3,-14 6,-6 3,7 2,16 -1,19 -3,4 -6,-2 -5,-13 z"
       id="path261"
       style="fill:#000000;fill-opacity:1" />
    <path
       d="m 7555,2840 c 4,-19 11,-39 16,-44 4,-5 3,8 -2,30 -14,50 -24,60 -14,14 z"
       id="path262"
       style="fill:#000000;fill-opacity:1" />
    <path
       d="m 7910,2146 c 0,-2 8,-10 18,-17 15,-13 16,-12 3,4 -13,16 -21,21 -21,13 z"
       id="path263"
       style="fill:#000000;fill-opacity:1" />
    <path
       d="m 10794,2208 -19,-23 23,19 c 21,18 27,26 19,26 -2,0 -12,-10 -23,-22 z"
       id="path264"
       style="fill:#000000;fill-opacity:1" />
    <path
       d="m 10714,2138 -19,-23 23,19 c 21,18 27,26 19,26 -2,0 -12,-10 -23,-22 z"
       id="path265"
       style="fill:#000000;fill-opacity:1" />
    <path
       d="m 10659,2093 c -13,-16 -12,-17 4,-4 16,13 21,21 13,21 -2,0 -10,-8 -17,-17 z"
       id="path266"
       style="fill:#000000;fill-opacity:1" />
    <path
       d="m 10619,2063 c -13,-16 -12,-17 4,-4 9,7 17,15 17,17 0,8 -8,3 -21,-13 z"
       id="path267"
       style="fill:#000000;fill-opacity:1" />
    <path
       d="m 10503,1989 c -35,-22 -46,-37 -15,-20 22,13 58,40 52,41 -3,0 -20,-10 -37,-21 z"
       id="path268"
       style="fill:#000000;fill-opacity:1" />
    <path
       d="m 10350,1905 c -47,-24 -82,-44 -77,-44 10,-1 167,78 167,84 0,7 4,9 -90,-40 z"
       id="path269"
       style="fill:#000000;fill-opacity:1" />
    <path
       d="m 10205,1839 c -22,-10 -29,-16 -15,-13 28,7 80,33 65,33 -5,0 -28,-9 -50,-20 z"
       id="path270"
       style="fill:#000000;fill-opacity:1" />
    <path
       d="m 10110,1805 c -19,-7 -28,-14 -20,-14 8,0 29,6 45,14 39,17 21,18 -25,0 z"
       id="path271"
       style="fill:#000000;fill-opacity:1" />
    <path
       d="m 10025,1780 c -13,-5 -14,-9 -5,-9 8,0 24,4 35,9 13,5 14,9 5,9 -8,0 -24,-4 -35,-9 z"
       id="path272"
       style="fill:#000000;fill-opacity:1" />
    <path
       d="m 9978,1763 c 7,-3 16,-2 19,1 4,3 -2,6 -13,5 -11,0 -14,-3 -6,-6 z"
       id="path273"
       style="fill:#000000;fill-opacity:1" />
    <path
       d="m 9938,1753 c 7,-3 16,-2 19,1 4,3 -2,6 -13,5 -11,0 -14,-3 -6,-6 z"
       id="path274"
       style="fill:#000000;fill-opacity:1" />
    <path
       d="m 9888,1743 c 6,-2 18,-2 25,0 6,3 1,5 -13,5 -14,0 -19,-2 -12,-5 z"
       id="path275"
       style="fill:#000000;fill-opacity:1" />
    <path
       d="m 9833,1733 c 9,-2 23,-2 30,0 6,3 -1,5 -18,5 -16,0 -22,-2 -12,-5 z"
       id="path276"
       style="fill:#000000;fill-opacity:1" />
  </g>
</svg>
